<svg viewBox = "0 0 108.84 153.2" width="108.84" height="153.2" xmlns="http://www.w3.org/2000/svg"><g transform="matrix(1 0 0 1 54.42 76.6)"  ><g style=""   ><g transform="matrix(1 0 0 1 -19.4 15.24)" id="c"  ><path style="stroke: none; stroke-width: 1; stroke-dasharray: none; stroke-linecap: butt; stroke-dashoffset: 0; stroke-linejoin: miter; stroke-miterlimit: 4; fill: rgb(0,50,133); fill-rule: nonzero; opacity: 1;"  transform=" translate(-35.02, -91.84)" d="M 29.7 58.78 C 28.669999999999998 55.230000000000004 24.86 53.260000000000005 21.42 54.63 C -3.5599999999999987 63.24 -9.719999999999999 108.07 19.340000000000003 124.67000000000002 C 42.34 136.17000000000002 63.84 124.92000000000002 69.46000000000001 113.42000000000002 C 74.83000000000001 102.45000000000002 41.32000000000001 98.99000000000001 29.690000000000005 58.780000000000015 Z" stroke-linecap="round" /></g><g transform="matrix(1 0 0 1 -16.32 14)" id="c"  ><path style="stroke: none; stroke-width: 1; stroke-dasharray: none; stroke-linecap: butt; stroke-dashoffset: 0; stroke-linejoin: miter; stroke-miterlimit: 4; fill: rgb(0,44,115); fill-rule: nonzero; opacity: 1;"  transform=" translate(-38.1, -90.6)" d="M 22.79 110.14 C 22.79 110.14 6.07 96.01 17.88 77.39 C 29.689999999999998 58.78 48.19 68.46000000000001 51.11 72.8 C 54.03 77.14 72.53 105.14 55.28 112.14 C 38.03 119.14 22.78 110.14 22.78 110.14 Z" stroke-linecap="round" /></g><g transform="matrix(1 0 0 1 -7.43 -3.8)" id="c"  ><path style="stroke: none; stroke-width: 1; stroke-dasharray: none; stroke-linecap: butt; stroke-dashoffset: 0; stroke-linejoin: miter; stroke-miterlimit: 4; fill: rgb(132,217,186); fill-rule: nonzero; opacity: 1;"  transform=" translate(-46.99, -72.8)" d="M 44.01 45.67 C 44.01 45.67 53.339999999999996 48.75 56.839999999999996 52.75 C 60.339999999999996 56.75 67.17 87.42 67.17 87.42 C 67.17 87.42 43.68000000000001 91.75 39.17 95.92 C 34.67 100.09 30.67 99.92 30.67 99.92 C 24.19 85.4 26.26 59.83 33.84 46.17 L 44.010000000000005 45.67 Z" stroke-linecap="round" /></g><g transform="matrix(1 0 0 1 -10.98 -45.53)" id="c"  ><path style="stroke: none; stroke-width: 1; stroke-dasharray: none; stroke-linecap: butt; stroke-dashoffset: 0; stroke-linejoin: miter; stroke-miterlimit: 4; fill: rgb(255,211,165); fill-rule: nonzero; opacity: 1;"  transform=" translate(-43.44, -31.07)" d="M 55.35 11.92 C 55.35 11.92 67.68 37.92 44.02 39.92 L 44.02 45.67 C 44.02 45.67 46.190000000000005 52.17 44.02 53.42 C 41.85 54.67 36.6 51.92 33.85 46.17 L 33.85 36.42 C 20.93 27.54 34.67 14.39 34.6 29.67 L 37.02 29.67 L 37.190000000000005 23.75 C 37.190000000000005 23.75 48.86000000000001 20.42 51.52 8.42 C 51.52 8.42 52.85 11.92 55.35 11.92 Z" stroke-linecap="round" /></g><g transform="matrix(1 0 0 1 4.34 -5.38)" id="c"  ><path style="stroke: rgb(71,199,152); stroke-width: 0.75; stroke-dasharray: none; stroke-linecap: round; stroke-dashoffset: 0; stroke-linejoin: miter; stroke-miterlimit: 10; fill: none; fill-rule: nonzero; opacity: 1;"  transform=" translate(-58.76, -71.22)" d="M 54.29 54.2 C 56.629999999999995 58.440000000000005 62.28 85.81 63.23 88.25" stroke-linecap="round" /></g><g transform="matrix(1 0 0 1 -15.12 -58.39)" id="c"  ><path style="stroke: none; stroke-width: 1; stroke-dasharray: none; stroke-linecap: butt; stroke-dashoffset: 0; stroke-linejoin: miter; stroke-miterlimit: 4; fill: rgb(0,30,79); fill-rule: nonzero; opacity: 1;"  transform=" translate(-39.3, -18.21)" d="M 28.51 25.76 C 30.51 20.51 33.34 23.18 34.09 24.930000000000003 C 34.84 26.680000000000007 34.59 29.680000000000003 34.59 29.680000000000003 L 37.010000000000005 29.680000000000003 L 37.18000000000001 23.760000000000005 C 37.18000000000001 23.760000000000005 48.85000000000001 20.430000000000007 51.510000000000005 8.430000000000005 C 51.510000000000005 8.430000000000005 52.84 11.930000000000005 55.34 11.930000000000005 C 63.69 -2.79 46.48 -1.53 40.84 3.26 C 15.9 -0.42 15.54 29.22 33.84 36.42 C 33.84 36.42 26.510000000000005 31 28.510000000000005 25.75 Z" stroke-linecap="round" /></g><g transform="matrix(1 0 0 1 -15.23 -4.85)" id="c"  ><path style="stroke: none; stroke-width: 1; stroke-dasharray: none; stroke-linecap: butt; stroke-dashoffset: 0; stroke-linejoin: miter; stroke-miterlimit: 4; fill: rgb(132,217,186); fill-rule: nonzero; opacity: 1;"  transform=" translate(-39.19, -71.75)" d="M 33.85 46.17 C 33.85 46.17 23.020000000000003 51.59 20.69 56.25 C 18.35 60.92 16.020000000000003 94.25 19.35 96.92 C 22.68 99.59 48.35 88.59 60.68 75.59 L 56.18 70.42 C 54.99 71.29 30.509999999999998 81.75 29.35 82.09 C 29.35 82.09 29.85 69.59 31.18 65.59 C 32.51 61.59 35.18 54.260000000000005 33.85 46.17 Z" stroke-linecap="round" /></g><g transform="matrix(1 0 0 1 5.69 -8.36)" id="c"  ><path style="stroke: none; stroke-width: 1; stroke-dasharray: none; stroke-linecap: butt; stroke-dashoffset: 0; stroke-linejoin: miter; stroke-miterlimit: 4; fill: rgb(255,211,165); fill-rule: nonzero; opacity: 1;"  transform=" translate(-60.11, -68.24)" d="M 56.65 70.93 C 56.73 67.95 59.83 63.92000000000001 63.58 64.54 L 57.589999999999996 72.01 L 56.65 70.93 Z" stroke-linecap="round" /></g><g transform="matrix(1 0 0 1 8.8 -8.45)" id="c"  ><path style="stroke: none; stroke-width: 1; stroke-dasharray: none; stroke-linecap: butt; stroke-dashoffset: 0; stroke-linejoin: miter; stroke-miterlimit: 4; fill: rgb(255,211,165); fill-rule: nonzero; opacity: 1;"  transform=" translate(-63.22, -68.15)" d="M 60.32 75.15 C 64.67 72.07000000000001 69.39 68.15 68.81 61.36000000000001 C 68.4 59.870000000000005 64.2 67.06 60.6 68.27000000000001 L 57.59 72.02000000000001 L 60.32 75.15 Z" stroke-linecap="round" /></g><g transform="matrix(1 0 0 1 15.34 34.73)" id="c"  ><path style="stroke: none; stroke-width: 1; stroke-dasharray: none; stroke-linecap: butt; stroke-dashoffset: 0; stroke-linejoin: miter; stroke-miterlimit: 4; fill: rgb(0,30,79); fill-rule: nonzero; opacity: 1;"  transform=" translate(-69.76, -111.33)" d="M 30.68 99.93 C 34.62 126.66000000000001 58.96 109.77000000000001 70.35 104.68 C 73.1 104.18 96.6 130.43 104.1 135.68 C 104.1 135.68 107.6 134.93 108.85 128.93 C 108.85 128.93 89.6 102.43 83.85 94.93 C 78.1 87.43 73.56 86.13000000000001 67.17999999999999 87.43 C 60.79999999999999 88.73 47.66 91.43 41.19 94.62 C 38.14 95.95 37.839999999999996 99.16000000000001 30.68 99.93 Z" stroke-linecap="round" /></g><g transform="matrix(1 0 0 1 15.05 52.34)" id="c"  ><path style="stroke: none; stroke-width: 1; stroke-dasharray: none; stroke-linecap: butt; stroke-dashoffset: 0; stroke-linejoin: miter; stroke-miterlimit: 4; fill: rgb(0,30,79); fill-rule: nonzero; opacity: 1;"  transform=" translate(-69.47, -128.94)" d="M 70.35 104.68 C 68.94999999999999 104.93 64.71 107.51 59.50999999999999 110.02000000000001 C 67.79999999999998 114.48 66.41 150.38 67.17999999999999 152.43 C 72.50999999999999 154.18 76.85 152.43 76.85 152.43 L 79.44 112.08000000000001 C 74.89999999999999 107.68 71.33 104.50000000000001 70.35 104.68 Z" stroke-linecap="round" /></g><g transform="matrix(1 0 0 1 12.76 -14.95)" id="c"  ><path style="stroke: none; stroke-width: 1; stroke-dasharray: none; stroke-linecap: butt; stroke-dashoffset: 0; stroke-linejoin: miter; stroke-miterlimit: 4; fill: rgb(0,30,79); fill-rule: nonzero; opacity: 1;"  transform=" translate(-67.18, -61.65)" d="M 73.97 55.79 L 73.03999999999999 54.86 L 60.38999999999999 67.51 L 61.31999999999999 68.44000000000001 L 73.97 55.79000000000001 Z" stroke-linecap="round" /></g><g transform="matrix(1 0 0 1 -17.55 34.86)" id="c"  ><path style="stroke: none; stroke-width: 1; stroke-dasharray: none; stroke-linecap: butt; stroke-dashoffset: 0; stroke-linejoin: miter; stroke-miterlimit: 4; fill: rgb(0,50,133); fill-rule: nonzero; opacity: 1;"  transform=" translate(-36.87, -111.46)" d="M 13.14 105.72 C 11.92 102.73 15.33 99.97 17.96 101.85 C 20.73 103.82 24.630000000000003 105.52 29.35 104.66999999999999 C 39.1 102.92999999999999 54.66 105.6 59.510000000000005 110.01999999999998 C 64.35000000000001 114.42999999999998 55.39000000000001 121.67999999999998 43.370000000000005 121.67999999999998 C 30.690000000000005 121.67999999999998 17.020000000000003 115.18999999999998 13.150000000000006 105.71999999999997 Z" stroke-linecap="round" /></g><g transform="matrix(1 0 0 1 -12.23 -2.76)" id="c"  ><path style="stroke: rgb(71,199,152); stroke-width: 0.75; stroke-dasharray: none; stroke-linecap: round; stroke-dashoffset: 0; stroke-linejoin: miter; stroke-miterlimit: 10; fill: none; fill-rule: nonzero; opacity: 1;"  transform=" translate(-42.19, -73.84)" d="M 31.18 65.59 C 31.18 65.59 29.53 72.54 29.35 82.09 L 55.03 70.97" stroke-linecap="round" /></g><g transform="matrix(1 0 0 1 -10 9.59)" id="c"  ><path style="stroke: rgb(71,199,152); stroke-width: 0.75; stroke-dasharray: none; stroke-linecap: round; stroke-dashoffset: 0; stroke-linejoin: miter; stroke-miterlimit: 10; fill: none; fill-rule: nonzero; opacity: 1;"  transform=" translate(-44.42, -86.19)" d="M 59.5 76.79 C 59.5 76.79 52.65 86.27000000000001 29.34 95.58000000000001" stroke-linecap="round" /></g><g transform="matrix(1 0 0 1 15.05 31.77)" id="c"  ><path style="stroke: rgb(243,244,246); stroke-width: 0.75; stroke-dasharray: none; stroke-linecap: round; stroke-dashoffset: 0; stroke-linejoin: miter; stroke-miterlimit: 10; fill: none; fill-rule: nonzero; opacity: 1;"  transform=" translate(-69.47, -108.37)" d="M 59.5 110.01 L 70.34 104.67 L 79.43 112.07000000000001" stroke-linecap="round" /></g></g></g></svg>