<svg viewBox = "0 0 89.68 89.44" width="89.68" height="89.44" xmlns="http://www.w3.org/2000/svg"><g transform="matrix(1 0 0 1 44.84 44.72)"  ><g style=""   ><g transform="matrix(1 0 0 1 -0.01 0.01)" id="c"  ><path style="stroke: none; stroke-width: 1; stroke-dasharray: none; stroke-linecap: butt; stroke-dashoffset: 0; stroke-linejoin: miter; stroke-miterlimit: 4; fill: rgb(0,50,133); fill-rule: nonzero; opacity: 1;"  transform=" translate(-44.83, -44.73)" d="M 44.47 66.37 C 41.12 75.25 32.57 86.62 22.869999999999997 89.24000000000001 C 21.22 89.69000000000001 19.269999999999996 89.44000000000001 18.089999999999996 88.2 C 16.649999999999995 86.67 16.819999999999997 84.27 17.159999999999997 82.2 C 17.959999999999997 77.31 19.119999999999997 72.43 20.789999999999996 67.77000000000001 C 21.379999999999995 66.12 26.209999999999994 53.44000000000001 28.089999999999996 53.72000000000001 C 19.639999999999997 52.47000000000001 11.779999999999998 49.37000000000001 3.739999999999995 46.59000000000001 C 2.679999999999995 46.22000000000001 1.5799999999999947 45.83000000000001 0.819999999999995 45.00000000000001 C -0.2600000000000051 43.81000000000001 -0.30000000000000515 41.830000000000005 0.729999999999995 40.60000000000001 C 1.359999999999995 39.84000000000001 2.289999999999995 39.400000000000006 3.189999999999995 38.99000000000001 C 4.819999999999995 38.25000000000001 34.239999999999995 33.52000000000001 34.08 36.59000000000001 C 34.559999999999995 27.510000000000012 33.68 11.690000000000012 38.28 3.680000000000014 C 39.76 1.1000000000000139 43.04 -0.9299999999999864 45.660000000000004 0.48000000000001375 C 47.32 1.3700000000000139 48.1 3.3000000000000136 48.68000000000001 5.090000000000014 C 49.42000000000001 7.380000000000014 57.900000000000006 35.20000000000002 58.06000000000001 35.180000000000014 C 67.86000000000001 34.06000000000002 74.43 32.750000000000014 84.06 34.97000000000001 C 92.2 36.850000000000016 90.15 42.530000000000015 86.3 46.12000000000001 C 83.91 48.35000000000001 65.37 58.01000000000001 64.07 55.65000000000001 C 67.86 62.48000000000001 70.86 70.01000000000002 74.14999999999999 77.09000000000002 C 75.88999999999999 80.82000000000002 76.24 90.44000000000001 69.30999999999999 88.18000000000002 C 67.92999999999999 87.73000000000002 66.86999999999999 86.64000000000001 65.83999999999999 85.61000000000003 C 63.83999999999999 83.59000000000003 43.76999999999999 68.21000000000004 44.459999999999994 66.38000000000002 Z" stroke-linecap="round" /></g><g transform="matrix(1 0 0 1 -10.49 -2.48)" id="c" clip-path="url(#CLIPPATH_1212)"  ><clipPath id="CLIPPATH_1212" ><path transform="matrix(1 0 0 1 10.48 2.5) translate(-44.83, -44.73)" id="d" d="M 44.47 66.37 C 41.12 75.25 32.57 86.62 22.869999999999997 89.24000000000001 C 21.22 89.69000000000001 19.269999999999996 89.44000000000001 18.089999999999996 88.2 C 16.649999999999995 86.67 16.819999999999997 84.27 17.159999999999997 82.2 C 17.959999999999997 77.31 19.119999999999997 72.43 20.789999999999996 67.77000000000001 C 21.379999999999995 66.12 26.209999999999994 53.44000000000001 28.089999999999996 53.72000000000001 C 19.639999999999997 52.47000000000001 11.779999999999998 49.37000000000001 3.739999999999995 46.59000000000001 C 2.679999999999995 46.22000000000001 1.5799999999999947 45.83000000000001 0.819999999999995 45.00000000000001 C -0.2600000000000051 43.81000000000001 -0.30000000000000515 41.830000000000005 0.729999999999995 40.60000000000001 C 1.359999999999995 39.84000000000001 2.289999999999995 39.400000000000006 3.189999999999995 38.99000000000001 C 4.819999999999995 38.25000000000001 34.239999999999995 33.52000000000001 34.08 36.59000000000001 C 34.559999999999995 27.510000000000012 33.68 11.690000000000012 38.28 3.680000000000014 C 39.76 1.1000000000000139 43.04 -0.9299999999999864 45.660000000000004 0.48000000000001375 C 47.32 1.3700000000000139 48.1 3.3000000000000136 48.68000000000001 5.090000000000014 C 49.42000000000001 7.380000000000014 57.900000000000006 35.20000000000002 58.06000000000001 35.180000000000014 C 67.86000000000001 34.06000000000002 74.43 32.750000000000014 84.06 34.97000000000001 C 92.2 36.850000000000016 90.15 42.530000000000015 86.3 46.12000000000001 C 83.91 48.35000000000001 65.37 58.01000000000001 64.07 55.65000000000001 C 67.86 62.48000000000001 70.86 70.01000000000002 74.14999999999999 77.09000000000002 C 75.88999999999999 80.82000000000002 76.24 90.44000000000001 69.30999999999999 88.18000000000002 C 67.92999999999999 87.73000000000002 66.86999999999999 86.64000000000001 65.83999999999999 85.61000000000003 C 63.83999999999999 83.59000000000003 43.76999999999999 68.21000000000004 44.459999999999994 66.38000000000002 Z" stroke-linecap="round" /></clipPath><path style="stroke: none; stroke-width: 1; stroke-dasharray: none; stroke-linecap: butt; stroke-dashoffset: 0; stroke-linejoin: miter; stroke-miterlimit: 4; fill: rgb(0,68,178); fill-rule: nonzero; opacity: 1;"  transform=" translate(-34.35, -42.24)" d="M 36.07 16.53 C 36 17.080000000000002 35.9 17.62 35.8 18.16 C 35.72 18.71 35.629999999999995 19.25 35.54 19.8 C 35.31 20.900000000000002 35.199999999999996 22.01 35.03 23.130000000000003 C 34.800000000000004 25.380000000000003 34.69 27.740000000000002 35.230000000000004 30.040000000000003 C 35.7 32.330000000000005 36.580000000000005 34.56 37.63 36.71 C 38.21 37.77 38.75 38.85 39.43 39.84 L 40.42 41.35 L 40.910000000000004 42.01 C 41.040000000000006 42.18 41.07 42.239999999999995 41.120000000000005 42.3 C 41.6 43.059999999999995 42.07000000000001 43.73 42.550000000000004 44.25 C 42.81 44.53 43.07000000000001 44.77 43.36000000000001 44.98 C 43.78000000000001 45.26 44.400000000000006 45.5 45.10000000000001 45.66 C 45.78000000000001 45.83 46.52000000000001 45.959999999999994 46.98000000000001 46.01 C 47.430000000000014 46.08 47.60000000000001 46.03 47.67000000000001 45.97 L 47.720000000000006 45.9 C 47.720000000000006 45.9 47.78000000000001 45.86 47.7 45.879999999999995 L 47.370000000000005 45.98 C 46.940000000000005 46.12 46.56 46.25 46.25000000000001 46.36 C 45.03000000000001 46.83 44.28000000000001 47.25 43.150000000000006 47.56 C 42.050000000000004 47.86 41.24000000000001 48.190000000000005 40.290000000000006 48.46 C 39.82000000000001 48.6 39.25000000000001 48.64 38.75000000000001 48.67 C 38.50000000000001 48.690000000000005 38.27000000000001 48.7 38.06000000000001 48.730000000000004 C 37.95000000000001 48.75000000000001 37.85000000000001 48.760000000000005 37.76000000000001 48.790000000000006 C 37.92000000000001 48.690000000000005 37.180000000000014 49.040000000000006 36.750000000000014 49.25000000000001 C 32.48000000000002 51.36000000000001 28.560000000000016 54.24000000000001 24.710000000000015 57.480000000000004 C 23.890000000000015 58.190000000000005 23.040000000000013 58.870000000000005 22.230000000000015 59.650000000000006 L 21.010000000000016 60.800000000000004 L 19.840000000000018 62.050000000000004 C 18.310000000000016 63.730000000000004 16.980000000000018 65.72 16.110000000000017 67.9 C 15.970000000000017 68.29 16.480000000000018 68.38000000000001 16.64000000000002 68.01 C 17.570000000000018 65.98 18.99000000000002 64.25 20.570000000000018 62.84 C 21.360000000000017 62.120000000000005 22.17000000000002 61.440000000000005 23.000000000000018 60.830000000000005 C 23.820000000000018 60.18000000000001 24.64000000000002 59.59 25.44000000000002 58.980000000000004 C 28.750000000000018 56.43000000000001 31.94000000000002 53.830000000000005 35.47000000000002 51.96000000000001 C 36.39000000000002 51.470000000000006 37.32000000000002 51.02000000000001 38.27000000000002 50.620000000000005 L 38.45000000000002 50.540000000000006 C 38.500000000000014 50.52 38.59000000000002 50.480000000000004 38.570000000000014 50.49000000000001 C 38.56000000000002 50.50000000000001 38.59000000000002 50.49000000000001 38.63000000000002 50.48000000000001 L 38.850000000000016 50.42000000000001 L 39.31000000000002 50.31000000000001 C 39.930000000000014 50.16000000000001 40.610000000000014 50.03000000000001 41.27000000000002 49.84000000000001 C 42.62000000000002 49.46000000000001 43.70000000000002 48.95000000000001 45.070000000000014 48.53000000000001 C 46.45000000000002 48.10000000000001 48.05000000000001 47.66000000000001 49.69000000000001 47.03000000000001 C 50.51000000000001 46.720000000000006 51.44000000000001 46.37000000000001 52.41000000000001 45.970000000000006 C 52.80000000000001 45.81000000000001 52.54000000000001 45.910000000000004 52.46000000000001 45.93000000000001 C 52.36000000000001 45.96000000000001 52.25000000000001 46.00000000000001 52.14000000000001 46.02000000000001 C 51.91000000000001 46.05000000000001 51.66000000000001 46.10000000000001 51.38000000000001 46.09000000000001 C 50.27000000000001 46.110000000000014 49.09000000000001 45.79000000000001 47.77000000000001 45.110000000000014 C 46.99000000000001 44.70000000000002 45.92000000000001 44.210000000000015 44.98000000000001 43.63000000000002 C 44.34000000000001 43.240000000000016 43.74000000000001 42.820000000000014 43.23000000000001 42.360000000000014 C 42.90000000000001 42.02000000000001 42.53000000000001 41.710000000000015 42.22000000000001 41.37000000000001 C 42.08000000000001 41.23000000000001 41.530000000000015 40.63000000000001 41.170000000000016 40.110000000000014 L 40.01000000000002 38.51000000000001 C 38.57000000000002 36.31000000000001 37.32000000000002 33.960000000000015 36.52000000000002 31.490000000000013 C 35.73000000000002 29.000000000000014 35.55000000000002 26.390000000000015 35.70000000000002 23.87000000000001 C 35.84000000000002 21.34000000000001 36.140000000000015 18.920000000000012 36.29000000000002 16.45000000000001 C 36.30000000000002 16.13000000000001 36.15000000000002 16.16000000000001 36.11000000000002 16.49000000000001 Z" stroke-linecap="round" /></g><g transform="matrix(1 0 0 1 -7.73 0.46)" id="c" clip-path="url(#CLIPPATH_1213)"  ><clipPath id="CLIPPATH_1213" ><path transform="matrix(1 0 0 1 7.72 -0.45) translate(-44.83, -44.73)" id="d" d="M 44.47 66.37 C 41.12 75.25 32.57 86.62 22.869999999999997 89.24000000000001 C 21.22 89.69000000000001 19.269999999999996 89.44000000000001 18.089999999999996 88.2 C 16.649999999999995 86.67 16.819999999999997 84.27 17.159999999999997 82.2 C 17.959999999999997 77.31 19.119999999999997 72.43 20.789999999999996 67.77000000000001 C 21.379999999999995 66.12 26.209999999999994 53.44000000000001 28.089999999999996 53.72000000000001 C 19.639999999999997 52.47000000000001 11.779999999999998 49.37000000000001 3.739999999999995 46.59000000000001 C 2.679999999999995 46.22000000000001 1.5799999999999947 45.83000000000001 0.819999999999995 45.00000000000001 C -0.2600000000000051 43.81000000000001 -0.30000000000000515 41.830000000000005 0.729999999999995 40.60000000000001 C 1.359999999999995 39.84000000000001 2.289999999999995 39.400000000000006 3.189999999999995 38.99000000000001 C 4.819999999999995 38.25000000000001 34.239999999999995 33.52000000000001 34.08 36.59000000000001 C 34.559999999999995 27.510000000000012 33.68 11.690000000000012 38.28 3.680000000000014 C 39.76 1.1000000000000139 43.04 -0.9299999999999864 45.660000000000004 0.48000000000001375 C 47.32 1.3700000000000139 48.1 3.3000000000000136 48.68000000000001 5.090000000000014 C 49.42000000000001 7.380000000000014 57.900000000000006 35.20000000000002 58.06000000000001 35.180000000000014 C 67.86000000000001 34.06000000000002 74.43 32.750000000000014 84.06 34.97000000000001 C 92.2 36.850000000000016 90.15 42.530000000000015 86.3 46.12000000000001 C 83.91 48.35000000000001 65.37 58.01000000000001 64.07 55.65000000000001 C 67.86 62.48000000000001 70.86 70.01000000000002 74.14999999999999 77.09000000000002 C 75.88999999999999 80.82000000000002 76.24 90.44000000000001 69.30999999999999 88.18000000000002 C 67.92999999999999 87.73000000000002 66.86999999999999 86.64000000000001 65.83999999999999 85.61000000000003 C 63.83999999999999 83.59000000000003 43.76999999999999 68.21000000000004 44.459999999999994 66.38000000000002 Z" stroke-linecap="round" /></clipPath><path style="stroke: none; stroke-width: 1; stroke-dasharray: none; stroke-linecap: butt; stroke-dashoffset: 0; stroke-linejoin: miter; stroke-miterlimit: 4; fill: rgb(0,68,178); fill-rule: nonzero; opacity: 1;"  transform=" translate(-37.11, -45.18)" d="M 36.48 16.3 C 35.529999999999994 20.03 36 23.94 36.73 27.73 C 37.19 29.990000000000002 37.72 32.26 38.57 34.47 C 39.37 36.69 40.53 38.839999999999996 41.95 40.769999999999996 C 42.24 41.15 42.34 41.24999999999999 42.45 41.37 C 42.56 41.489999999999995 42.67 41.61 42.800000000000004 41.72 C 43.06 41.93 43.31 42.16 43.61000000000001 42.36 C 44.190000000000005 42.769999999999996 44.86000000000001 43.16 45.510000000000005 43.54 C 46.00000000000001 43.81 46.470000000000006 44.1 46.89000000000001 44.339999999999996 C 47.650000000000006 44.81999999999999 48.17000000000001 45.23 48.620000000000005 45.51 C 49.07000000000001 45.82 49.470000000000006 45.949999999999996 50.230000000000004 46.07 C 51.010000000000005 46.15 52.040000000000006 46.18 53.13 46.09 C 53.400000000000006 46.09 53.67 46.03 53.940000000000005 46 L 54.34 45.95 C 54.400000000000006 45.95 54.49 45.93 54.52 45.93 L 54.410000000000004 46.02 C 54.120000000000005 46.260000000000005 53.81 46.5 53.410000000000004 46.720000000000006 C 52.63 47.17000000000001 51.56 47.550000000000004 50.550000000000004 47.88 C 49.53 48.21 48.56 48.5 47.800000000000004 48.81 C 47.040000000000006 49.120000000000005 46.510000000000005 49.49 45.900000000000006 49.89 C 45.300000000000004 50.28 44.63 50.7 43.78000000000001 51.03 C 42.940000000000005 51.36 41.99000000000001 51.620000000000005 41.11000000000001 51.88 C 40.67000000000001 52 40.230000000000004 52.14 39.82000000000001 52.28 L 39.510000000000005 52.39 C 39.45 52.410000000000004 39.410000000000004 52.43 39.400000000000006 52.43 L 39.07000000000001 52.58 C 38.60000000000001 52.8 38.120000000000005 53.01 37.66000000000001 53.26 C 35.56000000000001 54.339999999999996 33.51000000000001 55.55 31.49000000000001 56.87 C 29.49000000000001 58.239999999999995 27.54000000000001 59.709999999999994 25.710000000000008 61.4 C 22.050000000000008 64.78 18.90000000000001 69.06 16.76000000000001 74.03999999999999 C 16.61000000000001 74.38 16.910000000000007 74.49 17.070000000000007 74.16 C 19.01000000000001 69.84 22.140000000000008 66.44 25.230000000000008 63.5 C 28.320000000000007 60.51 31.53000000000001 57.79 35.120000000000005 55.76 C 36.010000000000005 55.239999999999995 36.92 54.78 37.830000000000005 54.32 C 38.28000000000001 54.08 38.75000000000001 53.87 39.21000000000001 53.660000000000004 L 39.86000000000001 53.36000000000001 L 40.17000000000001 53.230000000000004 C 41.080000000000005 52.870000000000005 42.02000000000001 52.510000000000005 42.96000000000001 52.17 C 44.830000000000005 51.49 46.980000000000004 50.940000000000005 49.00000000000001 50.230000000000004 C 50.00000000000001 49.88 50.78000000000001 49.45 51.49000000000001 49.02 C 52.21000000000001 48.59 52.85000000000001 48.150000000000006 53.75000000000001 47.720000000000006 L 56.790000000000006 46.300000000000004 L 57.190000000000005 46.1 L 57.39000000000001 46 C 57.39000000000001 46 57.580000000000005 45.91 57.48000000000001 45.94 L 56.89000000000001 46.059999999999995 C 56.49000000000001 46.15 56.040000000000006 46.16 55.56000000000001 46.199999999999996 C 53.61000000000001 46.24999999999999 51.540000000000006 45.88999999999999 49.69000000000001 45.10999999999999 C 48.55000000000001 44.629999999999995 47.26000000000001 44.059999999999995 46.12000000000001 43.35999999999999 C 45.40000000000001 42.92999999999999 44.73000000000001 42.459999999999994 44.13000000000001 41.959999999999994 C 43.72000000000001 41.57999999999999 43.31000000000001 41.21999999999999 42.99000000000001 40.78999999999999 C 42.86000000000001 40.61999999999999 42.35000000000001 40.029999999999994 42.01000000000001 39.50999999999999 L 40.95000000000001 37.88999999999999 C 39.65000000000001 35.669999999999995 38.610000000000014 33.309999999999995 37.89000000000001 30.879999999999995 C 37.24000000000001 28.549999999999997 36.67000000000001 26.139999999999993 36.50000000000001 23.699999999999996 C 36.34000000000001 21.269999999999996 36.410000000000004 18.819999999999997 37.02000000000001 16.549999999999997 C 37.15000000000001 16.029999999999998 36.57000000000001 15.749999999999996 36.44000000000001 16.289999999999996 Z" stroke-linecap="round" /></g><g transform="matrix(1 0 0 1 5.74 -6.01)" id="c" clip-path="url(#CLIPPATH_1214)"  ><clipPath id="CLIPPATH_1214" ><path transform="matrix(1 0 0 1 -5.75 6.02) translate(-44.83, -44.73)" id="d" d="M 44.47 66.37 C 41.12 75.25 32.57 86.62 22.869999999999997 89.24000000000001 C 21.22 89.69000000000001 19.269999999999996 89.44000000000001 18.089999999999996 88.2 C 16.649999999999995 86.67 16.819999999999997 84.27 17.159999999999997 82.2 C 17.959999999999997 77.31 19.119999999999997 72.43 20.789999999999996 67.77000000000001 C 21.379999999999995 66.12 26.209999999999994 53.44000000000001 28.089999999999996 53.72000000000001 C 19.639999999999997 52.47000000000001 11.779999999999998 49.37000000000001 3.739999999999995 46.59000000000001 C 2.679999999999995 46.22000000000001 1.5799999999999947 45.83000000000001 0.819999999999995 45.00000000000001 C -0.2600000000000051 43.81000000000001 -0.30000000000000515 41.830000000000005 0.729999999999995 40.60000000000001 C 1.359999999999995 39.84000000000001 2.289999999999995 39.400000000000006 3.189999999999995 38.99000000000001 C 4.819999999999995 38.25000000000001 34.239999999999995 33.52000000000001 34.08 36.59000000000001 C 34.559999999999995 27.510000000000012 33.68 11.690000000000012 38.28 3.680000000000014 C 39.76 1.1000000000000139 43.04 -0.9299999999999864 45.660000000000004 0.48000000000001375 C 47.32 1.3700000000000139 48.1 3.3000000000000136 48.68000000000001 5.090000000000014 C 49.42000000000001 7.380000000000014 57.900000000000006 35.20000000000002 58.06000000000001 35.180000000000014 C 67.86000000000001 34.06000000000002 74.43 32.750000000000014 84.06 34.97000000000001 C 92.2 36.850000000000016 90.15 42.530000000000015 86.3 46.12000000000001 C 83.91 48.35000000000001 65.37 58.01000000000001 64.07 55.65000000000001 C 67.86 62.48000000000001 70.86 70.01000000000002 74.14999999999999 77.09000000000002 C 75.88999999999999 80.82000000000002 76.24 90.44000000000001 69.30999999999999 88.18000000000002 C 67.92999999999999 87.73000000000002 66.86999999999999 86.64000000000001 65.83999999999999 85.61000000000003 C 63.83999999999999 83.59000000000003 43.76999999999999 68.21000000000004 44.459999999999994 66.38000000000002 Z" stroke-linecap="round" /></clipPath><path style="stroke: none; stroke-width: 1; stroke-dasharray: none; stroke-linecap: butt; stroke-dashoffset: 0; stroke-linejoin: miter; stroke-miterlimit: 4; fill: rgb(0,68,178); fill-rule: nonzero; opacity: 1;"  transform=" translate(-50.58, -38.71)" d="M 47.45 5.43 C 45.49 8.12 44.45 11.33 43.56 14.48 C 42.67 17.67 42.660000000000004 21.04 42.92 24.34 C 43.17 27.65 44.15 30.92 45.7 33.93 C 46.06 34.7 46.52 35.4 46.92 36.16 C 47.11 36.529999999999994 47.39 36.88999999999999 47.58 37.22 C 47.78 37.53 47.96 37.85 48.17 38.15 C 49.02 39.32 49.870000000000005 40.41 50.97 41.28 C 51.26 41.51 51.53 41.78 51.839999999999996 41.980000000000004 C 53.74999999999999 43.440000000000005 55.66 44.56 57.88999999999999 45.300000000000004 C 60.449999999999996 46.14000000000001 63.63999999999999 46.580000000000005 66.44999999999999 46.39000000000001 C 67.13999999999999 46.34000000000001 67.88 46.300000000000004 68.64999999999999 46.16000000000001 L 69.22999999999999 46.08000000000001 L 69.52 46.04000000000001 C 69.52 46.04000000000001 69.64 46.02000000000001 69.64999999999999 46.030000000000015 L 69.55999999999999 46.100000000000016 L 68.82 46.670000000000016 C 67.83 47.44000000000002 66.77999999999999 48.140000000000015 65.52999999999999 48.81000000000002 C 62.999999999999986 50.140000000000015 59.90999999999999 51.15000000000002 57.389999999999986 52.210000000000015 C 54.86999999999998 53.27000000000002 52.539999999999985 54.420000000000016 49.899999999999984 55.55000000000001 C 47.27999999999999 56.69000000000001 44.80999999999999 58.08000000000001 42.01999999999998 59.60000000000001 C 39.16999999999998 61.16000000000001 36.20999999999998 62.63000000000001 33.65999999999998 64.7 C 31.12999999999998 66.76 28.639999999999983 68.92 26.649999999999984 71.53 C 26.459999999999983 71.78 27.099999999999984 72.26 27.289999999999985 72.01 C 29.259999999999984 69.5 31.629999999999985 67.30000000000001 34.179999999999986 65.36 C 36.72999999999998 63.41 39.509999999999984 61.769999999999996 42.389999999999986 60.34 C 45.30999999999999 58.89 48.11999999999999 57.480000000000004 51.05999999999999 56.330000000000005 C 54.05999999999999 55.17000000000001 56.429999999999986 53.84 59.25999999999999 52.730000000000004 C 62.10999999999999 51.61000000000001 65.41999999999999 50.49 68.22999999999999 49.050000000000004 C 69.61999999999999 48.32000000000001 71.36999999999999 47.6 73.13 46.75000000000001 C 73.57 46.540000000000006 74.02 46.32000000000001 74.42999999999999 46.11000000000001 L 74.50999999999999 46.07000000000001 L 74.55 46.050000000000004 L 74.52 46.050000000000004 L 74.39999999999999 46.080000000000005 L 74.14999999999999 46.13 L 73.64999999999999 46.230000000000004 C 72.97999999999999 46.39 72.27 46.43000000000001 71.47999999999999 46.50000000000001 C 68.33999999999999 46.720000000000006 64.17999999999999 46.18000000000001 61.22999999999999 45.220000000000006 C 58.61999999999999 44.36000000000001 55.73999999999999 43.14000000000001 53.48999999999999 41.59 C 53.109999999999985 41.36000000000001 52.77999999999999 41.06 52.43999999999999 40.800000000000004 C 51.209999999999994 39.84 50.17999999999999 38.68000000000001 49.17999999999999 37.45 C 48.22999999999999 36.18 47.309999999999995 34.81 46.559999999999995 33.38 C 45.019999999999996 30.53 44.13999999999999 27.370000000000005 43.769999999999996 24.200000000000003 C 43.379999999999995 21.01 43.62 17.770000000000003 44.339999999999996 14.670000000000003 C 45.059999999999995 11.600000000000003 45.769999999999996 8.320000000000004 47.63999999999999 5.610000000000003 C 47.809999999999995 5.370000000000003 47.61999999999999 5.230000000000003 47.43999999999999 5.460000000000003 Z" stroke-linecap="round" /></g><g transform="matrix(1 0 0 1 28.86 3.72)" id="c" clip-path="url(#CLIPPATH_1215)"  ><clipPath id="CLIPPATH_1215" ><path transform="matrix(1 0 0 1 -28.87 -3.71) translate(-44.83, -44.73)" id="d" d="M 44.47 66.37 C 41.12 75.25 32.57 86.62 22.869999999999997 89.24000000000001 C 21.22 89.69000000000001 19.269999999999996 89.44000000000001 18.089999999999996 88.2 C 16.649999999999995 86.67 16.819999999999997 84.27 17.159999999999997 82.2 C 17.959999999999997 77.31 19.119999999999997 72.43 20.789999999999996 67.77000000000001 C 21.379999999999995 66.12 26.209999999999994 53.44000000000001 28.089999999999996 53.72000000000001 C 19.639999999999997 52.47000000000001 11.779999999999998 49.37000000000001 3.739999999999995 46.59000000000001 C 2.679999999999995 46.22000000000001 1.5799999999999947 45.83000000000001 0.819999999999995 45.00000000000001 C -0.2600000000000051 43.81000000000001 -0.30000000000000515 41.830000000000005 0.729999999999995 40.60000000000001 C 1.359999999999995 39.84000000000001 2.289999999999995 39.400000000000006 3.189999999999995 38.99000000000001 C 4.819999999999995 38.25000000000001 34.239999999999995 33.52000000000001 34.08 36.59000000000001 C 34.559999999999995 27.510000000000012 33.68 11.690000000000012 38.28 3.680000000000014 C 39.76 1.1000000000000139 43.04 -0.9299999999999864 45.660000000000004 0.48000000000001375 C 47.32 1.3700000000000139 48.1 3.3000000000000136 48.68000000000001 5.090000000000014 C 49.42000000000001 7.380000000000014 57.900000000000006 35.20000000000002 58.06000000000001 35.180000000000014 C 67.86000000000001 34.06000000000002 74.43 32.750000000000014 84.06 34.97000000000001 C 92.2 36.850000000000016 90.15 42.530000000000015 86.3 46.12000000000001 C 83.91 48.35000000000001 65.37 58.01000000000001 64.07 55.65000000000001 C 67.86 62.48000000000001 70.86 70.01000000000002 74.14999999999999 77.09000000000002 C 75.88999999999999 80.82000000000002 76.24 90.44000000000001 69.30999999999999 88.18000000000002 C 67.92999999999999 87.73000000000002 66.86999999999999 86.64000000000001 65.83999999999999 85.61000000000003 C 63.83999999999999 83.59000000000003 43.76999999999999 68.21000000000004 44.459999999999994 66.38000000000002 Z" stroke-linecap="round" /></clipPath><path style="stroke: none; stroke-width: 1; stroke-dasharray: none; stroke-linecap: butt; stroke-dashoffset: 0; stroke-linejoin: miter; stroke-miterlimit: 4; fill: rgb(0,68,178); fill-rule: nonzero; opacity: 1;"  transform=" translate(-73.7, -48.44)" d="M 31.83 81.57 C 32.17 81.22 32.47 80.83999999999999 32.66 80.39999999999999 C 32.93 79.97999999999999 33.099999999999994 79.49999999999999 33.309999999999995 79.00999999999999 C 33.74999999999999 78.03999999999999 34.199999999999996 76.96999999999998 34.959999999999994 76.13 C 36.709999999999994 74.17 38.879999999999995 72.33 41.379999999999995 70.77 C 42.709999999999994 69.89999999999999 44.129999999999995 69.11 45.56999999999999 68.33 L 46.669999999999995 67.78 C 47.37 67.43 48.029999999999994 67.14 48.73 66.85 C 50.089999999999996 66.24 51.48 65.66999999999999 52.9 65.14 C 55.71 64.05 58.71 63.14 61.7 62.160000000000004 C 64.72 61.190000000000005 67.62 60.14 70.27000000000001 58.970000000000006 C 72.89000000000001 57.790000000000006 75.05000000000001 56.470000000000006 77.21000000000001 55.21000000000001 C 79.36000000000001 53.93000000000001 81.46000000000001 52.68000000000001 83.79 51.38000000000001 C 86.12 50.09000000000001 88.38000000000001 48.71000000000001 90.74000000000001 47.19000000000001 L 91.63000000000001 46.62000000000001 L 92.07000000000001 46.33000000000001 L 92.29 46.19000000000001 C 92.29 46.19000000000001 92.38000000000001 46.13000000000001 92.38000000000001 46.13000000000001 L 92.32000000000001 46.15000000000001 L 91.34 46.500000000000014 C 90.99000000000001 46.640000000000015 90.77000000000001 46.670000000000016 90.5 46.740000000000016 C 90.25 46.80000000000002 89.96 46.90000000000001 89.8 46.88000000000002 L 89.33 46.91000000000002 C 89.25 46.88000000000002 89.23 46.81000000000002 89.2 46.77000000000002 C 89.2 46.740000000000016 89.17 46.73000000000002 89.2 46.680000000000014 L 89.35000000000001 46.490000000000016 L 89.52000000000001 46.30000000000002 C 89.58000000000001 46.240000000000016 89.62 46.19000000000002 89.78000000000002 46.06000000000002 C 90.52000000000001 45.37000000000002 92.45000000000002 43.94000000000002 95.21000000000001 41.55000000000002 L 98.05000000000001 39.27000000000002 L 98.76 38.70000000000002 L 99.11 38.41000000000002 L 99.73 37.960000000000015 L 102.19 36.15000000000001 L 104.64999999999999 34.34000000000001 L 105.88 33.430000000000014 L 106.19999999999999 33.20000000000002 L 106.74 32.820000000000014 L 107.82 32.070000000000014 C 110.69 30.070000000000014 113.55999999999999 28.070000000000014 116.44 26.060000000000016 L 104.84 27.840000000000018 L 98.63000000000001 28.750000000000018 L 86.21000000000001 30.560000000000016 L 73.81 32.37000000000002 C 72.48 32.58000000000002 72.5 32.530000000000015 72.07000000000001 32.57000000000002 L 71.02000000000001 32.64000000000002 L 68.91000000000001 32.78000000000002 L 64.70000000000002 33.060000000000024 L 62.600000000000016 33.200000000000024 L 62.08000000000001 33.230000000000025 L 61.820000000000014 33.25000000000003 L 61.69000000000001 33.25000000000003 C 61.69000000000001 33.25000000000003 61.66000000000001 33.25000000000003 61.65000000000001 33.24000000000003 L 61.320000000000014 33.06000000000003 L 58.69000000000001 31.65000000000003 L 58.22000000000001 31.40000000000003 L 57.850000000000016 31.10000000000003 C 57.62000000000002 30.89000000000003 57.390000000000015 30.69000000000003 57.180000000000014 30.47000000000003 C 56.94000000000001 30.230000000000032 56.820000000000014 30.090000000000032 56.670000000000016 29.92000000000003 C 56.56000000000002 29.81000000000003 56.500000000000014 29.77000000000003 56.41000000000002 29.69000000000003 C 56.12000000000002 29.39000000000003 55.81000000000002 29.10000000000003 55.48000000000002 28.80000000000003 C 55.210000000000015 28.47000000000003 54.890000000000015 28.17000000000003 54.62000000000002 27.81000000000003 C 54.38000000000002 27.44000000000003 54.09000000000002 27.090000000000032 53.91000000000002 26.67000000000003 C 53.13000000000002 25.06000000000003 52.210000000000015 23.27000000000003 51.98000000000002 21.26000000000003 C 51.75000000000002 19.24000000000003 52.51000000000002 17.26000000000003 52.95000000000002 15.390000000000029 C 52.960000000000015 15.320000000000029 52.530000000000015 15.21000000000003 52.52000000000002 15.28000000000003 C 52.240000000000016 16.57000000000003 52.030000000000015 17.88000000000003 51.920000000000016 19.21000000000003 C 51.87000000000002 20.540000000000028 51.860000000000014 21.87000000000003 52.070000000000014 23.17000000000003 C 52.30000000000001 24.46000000000003 52.72000000000001 25.71000000000003 53.360000000000014 26.78000000000003 C 53.98000000000001 27.87000000000003 54.640000000000015 28.85000000000003 55.34000000000001 29.790000000000028 C 55.48000000000001 29.98000000000003 55.58000000000001 30.180000000000028 55.74000000000001 30.360000000000028 C 55.82000000000001 30.46000000000003 56.220000000000006 31.010000000000026 56.64000000000001 31.430000000000028 C 56.85000000000001 31.650000000000027 57.06000000000001 31.87000000000003 57.330000000000005 32.06000000000003 L 58.230000000000004 32.59000000000003 L 60.02 33.66000000000003 L 60.24 33.790000000000035 C 60.34 33.830000000000034 60.31 33.91000000000003 60.61 33.87000000000003 L 62.01 33.81000000000003 L 64.81 33.69000000000003 L 67.60000000000001 33.570000000000036 L 68.99000000000001 33.51000000000003 L 69.68 33.48000000000003 C 69.96000000000001 33.46000000000003 69.94000000000001 33.500000000000036 70.82000000000001 33.37000000000003 L 87.10000000000001 31.13000000000003 L 95.2 30.02000000000003 L 97.22 29.74000000000003 L 99.92 29.35000000000003 L 107.93 28.15000000000003 L 101.92 32.43000000000003 L 98.98 34.54000000000003 L 97.32000000000001 35.83000000000003 L 93.06 39.120000000000026 L 90.55 41.22000000000003 L 89.92 41.74000000000003 C 89.72 41.91000000000003 89.46000000000001 42.11000000000003 89.38 42.20000000000003 L 88.64 42.89000000000003 L 87.9 43.58000000000003 C 87.66000000000001 43.810000000000024 87.36 44.07000000000003 87.28 44.190000000000026 L 86.48 45.11000000000003 L 86.29 45.33000000000003 L 86.21000000000001 45.480000000000025 L 86.05000000000001 45.78000000000002 C 85.76 46.25000000000002 85.94000000000001 46.380000000000024 86.00000000000001 46.630000000000024 C 86.43000000000002 46.90000000000003 87.19000000000001 46.940000000000026 88.34000000000002 46.61000000000002 C 88.58000000000001 46.57000000000002 88.95000000000002 46.41000000000002 89.25000000000001 46.310000000000024 L 89.72000000000001 46.14000000000002 L 89.84000000000002 46.10000000000002 L 89.65000000000002 46.22000000000002 L 89.21000000000002 46.49000000000002 C 88.03000000000002 47.21000000000002 86.87000000000002 47.92000000000002 85.74000000000002 48.57000000000002 C 81.17000000000002 51.25000000000002 76.49000000000002 53.37000000000002 72.15000000000002 55.58000000000002 C 69.97000000000001 56.69000000000002 67.89000000000001 57.83000000000002 65.51000000000002 58.95000000000002 C 64.37000000000002 59.52000000000002 63.10000000000002 60.06000000000002 61.87000000000002 60.62000000000002 C 60.58000000000002 61.16000000000002 59.31000000000002 61.70000000000002 57.95000000000002 62.20000000000002 C 55.27000000000002 63.22000000000002 52.51000000000002 64.19000000000001 49.84000000000002 65.22000000000001 L 47.87000000000002 66.03000000000002 C 47.54000000000002 66.17000000000002 47.21000000000002 66.30000000000001 46.89000000000002 66.44000000000001 L 46.03000000000002 66.83000000000001 C 45.270000000000024 67.17000000000002 44.53000000000002 67.55000000000001 43.810000000000024 67.95000000000002 C 42.28000000000002 68.81000000000002 40.840000000000025 69.81000000000002 39.550000000000026 70.91000000000001 C 38.880000000000024 71.43 38.29000000000003 72.02000000000001 37.660000000000025 72.57000000000001 C 37.090000000000025 73.16000000000001 36.47000000000003 73.7 35.940000000000026 74.29 C 34.870000000000026 75.36 34.03000000000003 76.57000000000001 33.230000000000025 77.71000000000001 C 32.440000000000026 78.86000000000001 31.800000000000026 79.97000000000001 30.990000000000023 80.98 C 30.800000000000022 81.26 31.650000000000023 81.8 31.860000000000024 81.57000000000001 Z" stroke-linecap="round" /></g><g transform="matrix(1 0 0 1 -2.13 -1.58)" id="c" clip-path="url(#CLIPPATH_1216)"  ><clipPath id="CLIPPATH_1216" ><path transform="matrix(1 0 0 1 2.12 1.59) translate(-44.83, -44.73)" id="d" d="M 44.47 66.37 C 41.12 75.25 32.57 86.62 22.869999999999997 89.24000000000001 C 21.22 89.69000000000001 19.269999999999996 89.44000000000001 18.089999999999996 88.2 C 16.649999999999995 86.67 16.819999999999997 84.27 17.159999999999997 82.2 C 17.959999999999997 77.31 19.119999999999997 72.43 20.789999999999996 67.77000000000001 C 21.379999999999995 66.12 26.209999999999994 53.44000000000001 28.089999999999996 53.72000000000001 C 19.639999999999997 52.47000000000001 11.779999999999998 49.37000000000001 3.739999999999995 46.59000000000001 C 2.679999999999995 46.22000000000001 1.5799999999999947 45.83000000000001 0.819999999999995 45.00000000000001 C -0.2600000000000051 43.81000000000001 -0.30000000000000515 41.830000000000005 0.729999999999995 40.60000000000001 C 1.359999999999995 39.84000000000001 2.289999999999995 39.400000000000006 3.189999999999995 38.99000000000001 C 4.819999999999995 38.25000000000001 34.239999999999995 33.52000000000001 34.08 36.59000000000001 C 34.559999999999995 27.510000000000012 33.68 11.690000000000012 38.28 3.680000000000014 C 39.76 1.1000000000000139 43.04 -0.9299999999999864 45.660000000000004 0.48000000000001375 C 47.32 1.3700000000000139 48.1 3.3000000000000136 48.68000000000001 5.090000000000014 C 49.42000000000001 7.380000000000014 57.900000000000006 35.20000000000002 58.06000000000001 35.180000000000014 C 67.86000000000001 34.06000000000002 74.43 32.750000000000014 84.06 34.97000000000001 C 92.2 36.850000000000016 90.15 42.530000000000015 86.3 46.12000000000001 C 83.91 48.35000000000001 65.37 58.01000000000001 64.07 55.65000000000001 C 67.86 62.48000000000001 70.86 70.01000000000002 74.14999999999999 77.09000000000002 C 75.88999999999999 80.82000000000002 76.24 90.44000000000001 69.30999999999999 88.18000000000002 C 67.92999999999999 87.73000000000002 66.86999999999999 86.64000000000001 65.83999999999999 85.61000000000003 C 63.83999999999999 83.59000000000003 43.76999999999999 68.21000000000004 44.459999999999994 66.38000000000002 Z" stroke-linecap="round" /></clipPath><path style="stroke: none; stroke-width: 1; stroke-dasharray: none; stroke-linecap: butt; stroke-dashoffset: 0; stroke-linejoin: miter; stroke-miterlimit: 4; fill: rgb(0,68,178); fill-rule: nonzero; opacity: 1;"  transform=" translate(-42.71, -43.14)" d="M 46.74 4.12 C 45.550000000000004 5.7 44.440000000000005 7.35 43.54 9.129999999999999 C 42.6 10.889999999999999 41.9 12.78 41.43 14.719999999999999 C 40.95 16.669999999999998 40.61 18.65 40.36 20.669999999999998 C 40.2 22.689999999999998 40.13 24.769999999999996 40.49 26.82 C 40.830000000000005 28.87 41.34 30.91 42.120000000000005 32.88 C 42.85 34.870000000000005 43.870000000000005 36.77 45.06 38.57 L 45.53 39.24 C 45.660000000000004 39.440000000000005 45.81 39.620000000000005 45.97 39.79 C 46.29 40.13 46.6 40.5 46.97 40.81 C 47.68 41.45 48.49 42.04 49.29 42.6 C 49.61 42.81 49.93 43.02 50.22 43.230000000000004 C 50.53 43.43000000000001 50.83 43.61000000000001 51.11 43.81 C 52.11 44.47 52.9 45.02 53.65 45.400000000000006 C 54.4 45.81 55.1 46.02 56.07 46.17000000000001 C 57.05 46.28000000000001 57.97 46.30000000000001 58.87 46.17000000000001 C 59.099999999999994 46.16000000000001 59.32 46.09000000000001 59.54 46.05000000000001 L 59.87 45.98000000000001 L 60.04 45.95000000000001 C 60.04 45.95000000000001 59.91 46.02000000000001 59.86 46.05000000000001 C 59.28 46.35000000000001 58.74 46.66000000000001 58.19 46.92000000000001 C 57.14 47.48000000000001 56.51 47.99000000000001 55.839999999999996 48.540000000000006 C 55.169999999999995 49.06000000000001 54.44 49.61000000000001 53.37 50.06000000000001 C 52.309999999999995 50.52000000000001 51.04 50.89000000000001 49.83 51.25000000000001 C 48.62 51.61000000000001 47.46 51.95000000000001 46.46 52.400000000000006 C 45.45 52.84 44.5 53.36000000000001 43.5 53.910000000000004 L 40.21 55.78 C 36.8 57.61 33.65 59.910000000000004 30.560000000000002 62.33 C 27.490000000000002 64.72 24.080000000000002 67.1 21.68 70.6 C 21.06 71.44 20.6 72.41999999999999 20.12 73.35 C 19.720000000000002 74.35 19.290000000000003 75.30999999999999 19.01 76.35 L 18.580000000000002 77.89 C 18.450000000000003 78.41 18.37 78.94 18.26 79.46 C 18.020000000000003 80.49 17.930000000000003 81.55 17.770000000000003 82.58999999999999 C 17.700000000000003 83.03999999999999 17.550000000000004 83.04999999999998 17.640000000000004 82.58999999999999 C 18.380000000000003 78.38999999999999 20.340000000000003 74.51999999999998 22.810000000000002 71.35 C 25.250000000000004 68.13 28.160000000000004 65.44999999999999 31.290000000000003 63.24999999999999 C 34.42 61.03999999999999 37.67 59.10999999999999 41.06 57.49999999999999 L 45.04 55.589999999999996 C 46.31 54.989999999999995 47.55 54.419999999999995 48.85 53.919999999999995 C 51.42 52.91 54.480000000000004 52.099999999999994 57.160000000000004 50.99999999999999 C 59.81 49.919999999999995 62.52 48.739999999999995 65.27000000000001 47.28999999999999 C 65.98 46.92999999999999 66.73 46.529999999999994 67.56000000000002 46.129999999999995 L 67.71000000000002 46.05 C 67.71000000000002 46.05 67.85000000000002 45.989999999999995 67.78000000000002 46.01 L 67.58000000000001 46.059999999999995 L 67.19000000000001 46.15 C 66.93 46.21 66.67000000000002 46.29 66.4 46.3 C 65.34 46.47 64.22 46.43 62.85000000000001 46.279999999999994 C 60.14000000000001 45.879999999999995 57.400000000000006 44.91 54.83000000000001 43.17999999999999 C 54.15000000000001 42.75999999999999 53.47000000000001 42.24999999999999 52.780000000000015 41.739999999999995 C 50.820000000000014 40.239999999999995 49.000000000000014 38.519999999999996 47.570000000000014 36.28999999999999 C 46.59000000000002 34.68999999999999 45.640000000000015 33.06999999999999 44.98000000000002 31.32999999999999 C 44.59000000000002 30.47999999999999 44.36000000000002 29.57999999999999 44.06000000000002 28.699999999999992 C 43.860000000000014 27.799999999999994 43.58000000000002 26.909999999999993 43.48000000000002 25.98999999999999 C 43.16000000000002 24.16999999999999 43.19000000000002 22.30999999999999 43.280000000000015 20.499999999999993 C 43.420000000000016 18.679999999999993 43.70000000000002 16.889999999999993 44.05000000000002 15.119999999999994 C 44.44000000000002 13.349999999999994 44.95000000000002 11.599999999999994 45.70000000000002 9.949999999999994 C 46.02000000000002 9.099999999999994 46.48000000000002 8.319999999999993 46.860000000000014 7.489999999999994 C 47.33000000000001 6.7199999999999935 47.72000000000001 5.8899999999999935 48.240000000000016 5.1399999999999935 C 49.210000000000015 3.6399999999999935 47.97000000000001 2.5399999999999934 46.73000000000002 4.129999999999994 Z" stroke-linecap="round" /></g><g transform="matrix(1 0 0 1 8.97 4.7)" id="c" clip-path="url(#CLIPPATH_1217)"  ><clipPath id="CLIPPATH_1217" ><path transform="matrix(1 0 0 1 -8.98 -4.69) translate(-44.83, -44.73)" id="d" d="M 44.47 66.37 C 41.12 75.25 32.57 86.62 22.869999999999997 89.24000000000001 C 21.22 89.69000000000001 19.269999999999996 89.44000000000001 18.089999999999996 88.2 C 16.649999999999995 86.67 16.819999999999997 84.27 17.159999999999997 82.2 C 17.959999999999997 77.31 19.119999999999997 72.43 20.789999999999996 67.77000000000001 C 21.379999999999995 66.12 26.209999999999994 53.44000000000001 28.089999999999996 53.72000000000001 C 19.639999999999997 52.47000000000001 11.779999999999998 49.37000000000001 3.739999999999995 46.59000000000001 C 2.679999999999995 46.22000000000001 1.5799999999999947 45.83000000000001 0.819999999999995 45.00000000000001 C -0.2600000000000051 43.81000000000001 -0.30000000000000515 41.830000000000005 0.729999999999995 40.60000000000001 C 1.359999999999995 39.84000000000001 2.289999999999995 39.400000000000006 3.189999999999995 38.99000000000001 C 4.819999999999995 38.25000000000001 34.239999999999995 33.52000000000001 34.08 36.59000000000001 C 34.559999999999995 27.510000000000012 33.68 11.690000000000012 38.28 3.680000000000014 C 39.76 1.1000000000000139 43.04 -0.9299999999999864 45.660000000000004 0.48000000000001375 C 47.32 1.3700000000000139 48.1 3.3000000000000136 48.68000000000001 5.090000000000014 C 49.42000000000001 7.380000000000014 57.900000000000006 35.20000000000002 58.06000000000001 35.180000000000014 C 67.86000000000001 34.06000000000002 74.43 32.750000000000014 84.06 34.97000000000001 C 92.2 36.850000000000016 90.15 42.530000000000015 86.3 46.12000000000001 C 83.91 48.35000000000001 65.37 58.01000000000001 64.07 55.65000000000001 C 67.86 62.48000000000001 70.86 70.01000000000002 74.14999999999999 77.09000000000002 C 75.88999999999999 80.82000000000002 76.24 90.44000000000001 69.30999999999999 88.18000000000002 C 67.92999999999999 87.73000000000002 66.86999999999999 86.64000000000001 65.83999999999999 85.61000000000003 C 63.83999999999999 83.59000000000003 43.76999999999999 68.21000000000004 44.459999999999994 66.38000000000002 Z" stroke-linecap="round" /></clipPath><path style="stroke: none; stroke-width: 1; stroke-dasharray: none; stroke-linecap: butt; stroke-dashoffset: 0; stroke-linejoin: miter; stroke-miterlimit: 4; fill: rgb(0,68,178); fill-rule: nonzero; opacity: 1;"  transform=" translate(-53.81, -49.42)" d="M 46.27 27.8 C 46.480000000000004 29.5 46.940000000000005 31.26 47.790000000000006 32.86 C 47.970000000000006 33.28 48.21000000000001 33.66 48.45 34.05 C 48.7 34.43 48.910000000000004 34.839999999999996 49.190000000000005 35.199999999999996 C 49.46000000000001 35.55 49.78000000000001 35.98 50.11000000000001 36.379999999999995 C 50.440000000000005 36.779999999999994 50.85000000000001 37.12 51.21000000000001 37.49999999999999 L 51.71000000000001 37.989999999999995 C 51.71000000000001 37.989999999999995 51.790000000000006 38.06999999999999 51.84000000000001 38.10999999999999 L 52.04000000000001 38.199999999999996 L 52.44000000000001 38.379999999999995 L 54.030000000000015 39.10999999999999 C 54.180000000000014 39.25999999999999 54.84000000000002 39.28999999999999 55.33000000000001 39.35999999999999 L 56.890000000000015 39.54999999999999 C 57.41000000000002 39.60999999999999 57.94000000000001 39.66999999999999 58.460000000000015 39.72999999999999 C 58.740000000000016 39.75999999999999 58.95000000000002 39.79999999999999 59.280000000000015 39.80999999999999 L 60.62000000000002 39.789999999999985 C 60.69000000000002 40.29999999999998 60.76000000000002 40.79999999999998 60.84000000000002 41.30999999999999 C 61.030000000000015 41.719999999999985 61.29000000000002 42.069999999999986 61.500000000000014 42.45999999999999 C 61.670000000000016 42.87999999999999 62.06000000000002 43.109999999999985 62.34000000000002 43.41999999999999 C 62.640000000000015 43.719999999999985 62.920000000000016 44.01999999999999 63.280000000000015 44.219999999999985 L 64.19000000000001 44.859999999999985 L 65.15 45.34999999999999 C 65.45 45.52999999999999 65.80000000000001 45.639999999999986 66.14 45.759999999999984 C 66.48 45.86999999999998 66.81 46.02999999999999 67.17 46.08999999999998 C 68.59 46.469999999999985 70.18 46.55999999999998 71.97 46.509999999999984 C 72.87 46.41999999999998 73.78 46.389999999999986 74.7 46.19999999999998 L 75.39 46.079999999999984 C 75.48 46.069999999999986 75.67 46.01999999999998 75.68 46.039999999999985 L 75.37 46.23999999999999 L 74.12 47.02999999999999 C 72.43 48.039999999999985 70.7 48.999999999999986 68.87 49.83999999999999 C 65.29 51.50999999999999 62.14 53.04999999999999 58.300000000000004 54.37999999999999 C 56.38 55.02999999999999 54.28 55.54999999999999 52.28 56.04999999999999 C 50.28 56.54999999999999 48.39 57.02999999999999 46.67 57.64999999999999 C 45.75 57.97999999999999 44.88 58.349999999999994 44.010000000000005 58.76999999999999 C 43.580000000000005 58.96999999999999 43.14000000000001 59.18999999999999 42.720000000000006 59.41999999999999 L 41.39000000000001 60.139999999999986 C 39.64000000000001 61.15999999999999 37.95000000000001 62.23999999999999 36.27000000000001 63.33999999999999 C 34.60000000000001 64.43999999999998 33.01000000000001 65.68999999999998 31.53000000000001 67.04999999999998 C 30.770000000000007 67.69999999999999 30.08000000000001 68.43999999999998 29.340000000000007 69.10999999999999 C 28.660000000000007 69.83999999999999 27.910000000000007 70.50999999999999 27.240000000000006 71.24999999999999 C 26.700000000000006 71.80999999999999 27.240000000000006 72.58999999999999 27.800000000000004 72.05999999999999 C 30.460000000000004 69.46999999999998 33.28 66.96 36.45 64.97999999999999 C 38.040000000000006 64.00999999999999 39.67 63.09999999999999 41.36 62.31999999999999 C 42.22 61.89999999999999 43.01 61.57999999999999 43.96 61.17999999999999 C 44.94 60.78999999999999 45.93 60.419999999999995 46.95 60.059999999999995 C 50.95 58.669999999999995 55.040000000000006 57.24999999999999 59.22 55.849999999999994 C 63.43 54.46999999999999 67.92 53.029999999999994 71.97 51.19 C 74.03 50.25 75.82 49.21 77.57 48.08 C 78.44 47.53 79.30999999999999 46.93 80.19 46.33 L 80.52 46.11 L 80.6 46.05 C 80.6 46.05 80.55999999999999 46.05 80.55 46.05 L 80.39 46.08 L 79.75 46.21 C 79.33 46.29 78.9 46.42 78.53 46.44 C 76.98 46.699999999999996 75.62 46.629999999999995 74.4 46.4 C 73.23 46.1 72.28 45.54 71.68 44.6 C 71.52000000000001 44.25 71.53 43.82 71.55000000000001 43.42 C 71.54 43.33 71.61000000000001 43.18 71.68 43.04 L 71.9 42.61 C 72.06 42.32 72.23 42.03 72.43 41.73 L 72.58000000000001 41.5 L 72.88000000000001 41.17 L 73.50000000000001 40.510000000000005 L 74.83000000000001 39.150000000000006 L 75.18 38.800000000000004 C 75.28 38.690000000000005 75.56 38.470000000000006 75.75 38.31 L 77.02 37.25 L 79.67 35.06 L 76.19 35.47 L 75.31 35.58 L 74.83 35.62 L 73.94 35.69 L 70.33 35.96 L 62.82 36.57 L 61.86 36.65 L 61.38 36.69 L 61.14 36.71 C 61.08 36.71 61.07 36.71 61.04 36.71 L 60.339999999999996 36.64 L 58.91 36.5 L 55.97 36.24 C 55.51 36.24 55.5 36.09 55.33 36 L 54.91 35.68 L 54.05 35.05 C 53.769999999999996 34.839999999999996 53.44 34.65 53.209999999999994 34.41 C 52.96999999999999 34.18 52.74999999999999 33.94 52.529999999999994 33.69 C 52.10999999999999 33.18 51.879999999999995 32.989999999999995 51.63999999999999 32.629999999999995 L 50.879999999999995 31.679999999999996 C 49.94 30.359999999999996 49.059999999999995 28.939999999999998 48.449999999999996 27.389999999999997 C 48.05 26.24 46.17999999999999 26.349999999999998 46.269999999999996 27.769999999999996 Z" stroke-linecap="round" /></g><g transform="matrix(1 0 0 1 42.8 4.44)" id="c" clip-path="url(#CLIPPATH_1218)"  ><clipPath id="CLIPPATH_1218" ><path transform="matrix(1 0 0 1 -42.81 -4.43) translate(-44.83, -44.73)" id="d" d="M 44.47 66.37 C 41.12 75.25 32.57 86.62 22.869999999999997 89.24000000000001 C 21.22 89.69000000000001 19.269999999999996 89.44000000000001 18.089999999999996 88.2 C 16.649999999999995 86.67 16.819999999999997 84.27 17.159999999999997 82.2 C 17.959999999999997 77.31 19.119999999999997 72.43 20.789999999999996 67.77000000000001 C 21.379999999999995 66.12 26.209999999999994 53.44000000000001 28.089999999999996 53.72000000000001 C 19.639999999999997 52.47000000000001 11.779999999999998 49.37000000000001 3.739999999999995 46.59000000000001 C 2.679999999999995 46.22000000000001 1.5799999999999947 45.83000000000001 0.819999999999995 45.00000000000001 C -0.2600000000000051 43.81000000000001 -0.30000000000000515 41.830000000000005 0.729999999999995 40.60000000000001 C 1.359999999999995 39.84000000000001 2.289999999999995 39.400000000000006 3.189999999999995 38.99000000000001 C 4.819999999999995 38.25000000000001 34.239999999999995 33.52000000000001 34.08 36.59000000000001 C 34.559999999999995 27.510000000000012 33.68 11.690000000000012 38.28 3.680000000000014 C 39.76 1.1000000000000139 43.04 -0.9299999999999864 45.660000000000004 0.48000000000001375 C 47.32 1.3700000000000139 48.1 3.3000000000000136 48.68000000000001 5.090000000000014 C 49.42000000000001 7.380000000000014 57.900000000000006 35.20000000000002 58.06000000000001 35.180000000000014 C 67.86000000000001 34.06000000000002 74.43 32.750000000000014 84.06 34.97000000000001 C 92.2 36.850000000000016 90.15 42.530000000000015 86.3 46.12000000000001 C 83.91 48.35000000000001 65.37 58.01000000000001 64.07 55.65000000000001 C 67.86 62.48000000000001 70.86 70.01000000000002 74.14999999999999 77.09000000000002 C 75.88999999999999 80.82000000000002 76.24 90.44000000000001 69.30999999999999 88.18000000000002 C 67.92999999999999 87.73000000000002 66.86999999999999 86.64000000000001 65.83999999999999 85.61000000000003 C 63.83999999999999 83.59000000000003 43.76999999999999 68.21000000000004 44.459999999999994 66.38000000000002 Z" stroke-linecap="round" /></clipPath><path style="stroke: none; stroke-width: 1; stroke-dasharray: none; stroke-linecap: butt; stroke-dashoffset: 0; stroke-linejoin: miter; stroke-miterlimit: 4; fill: rgb(0,68,178); fill-rule: nonzero; opacity: 1;"  transform=" translate(-87.64, -49.16)" d="M 58.8 15.49 C 57.73 16.490000000000002 57.39 18.09 57.11 19.68 C 56.85 21.21 56.42 22.939999999999998 56.839999999999996 24.48 C 56.919999999999995 24.88 57.129999999999995 25.21 57.26 25.580000000000002 C 57.46 25.900000000000002 57.629999999999995 26.240000000000002 57.83 26.540000000000003 C 58.059999999999995 26.820000000000004 58.21 27.140000000000004 58.46 27.400000000000002 C 58.57 27.540000000000003 58.67 27.680000000000003 58.76 27.820000000000004 L 59.29 28.520000000000003 C 59.66 28.940000000000005 60.04 29.370000000000005 60.5 29.740000000000002 C 61.02 30.090000000000003 61.65 30.39 62.21 30.71 L 63.92 31.68 L 64.34 31.919999999999998 C 64.75 31.909999999999997 65.31 31.849999999999998 65.79 31.81 L 68.76 31.57 L 74.61 31.11 L 76.05 31 L 76.77 30.95 L 77.13 30.919999999999998 L 78.14 30.77 L 86.94 29.45 C 92.73 28.58 98.50999999999999 27.72 104.3 26.849999999999998 L 112.86 25.569999999999997 L 127.71 23.279999999999998 C 123.94999999999999 25.659999999999997 120.19 28.04 116.44 30.419999999999998 L 112.34 33.059999999999995 L 109.16 35.14999999999999 L 106.38 37.01999999999999 L 105.17 37.84999999999999 L 104.37 38.429999999999986 C 103.31 39.19999999999999 102.28 39.969999999999985 101.27000000000001 40.73999999999999 L 100.51 41.319999999999986 L 100.07000000000001 41.69999999999999 L 99.2 42.44999999999999 L 98.33 43.19999999999999 C 98.03999999999999 43.44999999999999 97.71 43.72999999999999 97.61 43.859999999999985 L 96.64 44.859999999999985 L 96.39 45.109999999999985 L 96.26 45.22999999999998 L 96.2 45.30999999999998 L 95.94 45.62999999999998 C 95.77 45.83999999999998 95.53999999999999 46.06999999999998 95.36 46.24999999999998 C 95.27 46.369999999999976 95.16 46.48999999999998 95.02 46.60999999999998 L 94.82 46.78999999999998 C 94.82 46.78999999999998 94.77999999999999 46.839999999999975 94.77 46.869999999999976 L 94.67999999999999 47.00999999999998 C 94.67999999999999 47.00999999999998 94.77999999999999 46.99999999999998 94.83 46.989999999999974 C 94.89999999999999 46.96999999999997 94.92 46.989999999999974 95.09 46.89999999999997 L 95.5 46.70999999999997 C 95.61 46.66999999999997 95.88 46.50999999999997 96.07 46.409999999999975 L 96.38 46.239999999999974 L 96.53999999999999 46.159999999999975 L 96.58 46.13999999999997 C 96.58 46.13999999999997 96.52 46.16999999999997 96.5 46.18999999999997 L 96.27 46.31999999999997 L 94.47999999999999 47.38999999999997 C 89.82 50.16999999999997 85.74 52.49999999999997 81.57999999999998 54.81999999999997 C 79.51999999999998 55.96999999999997 77.45999999999998 57.129999999999974 75.39999999999998 58.28999999999997 C 74.33999999999997 58.86999999999997 73.19999999999997 59.44999999999997 72.07999999999998 60.01999999999997 C 70.85999999999999 60.57999999999997 69.71999999999998 61.14999999999997 68.42999999999998 61.69999999999997 C 67.13999999999997 62.23999999999997 65.83999999999997 62.749999999999964 64.39999999999998 63.209999999999965 C 62.99999999999998 63.679999999999964 61.559999999999974 64.10999999999997 60.09999999999998 64.52999999999996 C 57.20999999999998 65.36999999999996 54.38999999999998 66.14999999999996 51.78999999999998 67.16999999999996 C 50.49999999999998 67.69999999999996 49.21999999999998 68.22999999999996 47.949999999999974 68.77999999999996 L 46.659999999999975 69.38999999999996 C 46.339999999999975 69.52999999999996 46.02999999999997 69.68999999999996 45.729999999999976 69.85999999999996 C 44.49999999999998 70.48999999999995 43.299999999999976 71.17999999999995 42.189999999999976 71.91999999999996 C 39.939999999999976 73.38999999999996 37.909999999999975 75.06999999999996 36.379999999999974 76.85999999999996 C 34.84999999999997 78.64999999999996 33.70999999999997 80.52999999999996 33.229999999999976 82.28999999999996 C 33.09999999999997 82.80999999999996 34.49999999999998 83.28999999999996 34.63999999999997 82.85999999999996 C 35.24999999999997 81.26999999999995 36.089999999999975 79.21999999999996 37.79999999999997 77.46999999999996 C 39.53999999999997 75.74999999999996 41.76999999999997 74.21999999999996 44.17999999999997 72.82999999999996 C 45.40999999999997 72.14999999999995 46.68999999999997 71.52999999999996 48.03999999999997 71.01999999999995 L 49.00999999999997 70.60999999999996 L 50.12999999999997 70.16999999999996 L 52.39999999999997 69.28999999999996 L 57.02999999999997 67.59999999999997 C 63.29999999999997 65.33999999999996 68.98999999999998 62.639999999999965 73.92999999999998 60.109999999999964 C 76.47999999999998 58.849999999999966 78.99999999999997 57.64999999999996 81.64999999999998 56.44999999999996 C 84.26999999999998 55.23999999999996 86.90999999999998 53.98999999999996 89.25999999999998 52.61999999999996 L 96.57999999999998 48.30999999999996 L 100.02999999999999 46.24999999999996 L 99.03999999999999 46.88999999999996 L 98.85999999999999 46.99999999999996 L 98.76999999999998 47.049999999999955 L 98.73999999999998 47.049999999999955 L 98.57999999999998 47.09999999999995 C 98.57999999999998 47.09999999999995 98.53999999999998 47.10999999999995 98.53999999999998 47.09999999999995 L 98.56999999999998 47.05999999999995 L 98.61999999999998 46.979999999999954 C 98.66999999999997 46.909999999999954 98.60999999999997 46.91999999999995 98.80999999999997 46.73999999999995 L 99.25999999999998 46.329999999999956 C 99.25999999999998 46.329999999999956 99.49999999999997 46.13999999999996 99.64999999999998 46.01999999999995 L 100.12999999999998 45.659999999999954 C 100.58999999999997 45.299999999999955 101.97999999999998 44.369999999999955 103.13999999999999 43.62999999999995 L 105.08999999999999 42.409999999999954 L 107.24 41.09999999999995 L 113.78 37.13999999999995 L 124.38 30.67999999999995 L 142.06 19.75999999999995 C 128.6 21.87999999999995 115.13 24.00999999999995 101.65 26.139999999999947 L 84.98 28.769999999999946 L 82.89 29.099999999999945 L 81.84 29.269999999999946 C 81.61 29.309999999999945 81.65 29.299999999999947 81.56 29.309999999999945 L 81.39 29.329999999999945 L 80.02 29.469999999999946 L 77.27 29.749999999999947 L 67.03999999999999 30.799999999999947 C 66.47999999999999 30.889999999999947 66.49999999999999 30.779999999999948 66.35999999999999 30.729999999999947 L 65.99999999999999 30.549999999999947 L 65.27999999999999 30.189999999999948 L 63.829999999999984 29.46999999999995 L 62.37999999999998 28.74999999999995 C 61.969999999999985 28.47999999999995 61.65999999999998 28.15999999999995 61.329999999999984 27.84999999999995 L 60.87999999999998 27.34999999999995 C 60.759999999999984 27.20999999999995 60.69999999999998 27.109999999999953 60.59999999999998 26.97999999999995 L 60.39999999999998 26.71999999999995 C 60.09999999999998 26.12999999999995 59.75999999999998 25.60999999999995 59.60999999999998 24.92999999999995 C 59.48999999999998 24.61999999999995 59.42999999999998 24.25999999999995 59.269999999999975 23.94999999999995 C 59.17999999999997 23.58999999999995 58.989999999999974 23.26999999999995 58.909999999999975 22.88999999999995 C 58.64999999999998 22.169999999999952 58.53999999999998 21.34999999999995 58.589999999999975 20.54999999999995 C 58.77999999999997 18.94999999999995 59.199999999999974 17.35999999999995 59.909999999999975 16.11999999999995 C 60.06999999999997 15.789999999999951 59.939999999999976 15.539999999999951 59.689999999999976 15.39999999999995 C 59.439999999999976 15.25999999999995 59.03999999999998 15.23999999999995 58.799999999999976 15.49999999999995 Z" stroke-linecap="round" /></g><g transform="matrix(1 0 0 1 -19.64 -5.09)" id="c" clip-path="url(#CLIPPATH_1219)"  ><clipPath id="CLIPPATH_1219" ><path transform="matrix(1 0 0 1 19.63 5.11) translate(-44.83, -44.73)" id="d" d="M 44.47 66.37 C 41.12 75.25 32.57 86.62 22.869999999999997 89.24000000000001 C 21.22 89.69000000000001 19.269999999999996 89.44000000000001 18.089999999999996 88.2 C 16.649999999999995 86.67 16.819999999999997 84.27 17.159999999999997 82.2 C 17.959999999999997 77.31 19.119999999999997 72.43 20.789999999999996 67.77000000000001 C 21.379999999999995 66.12 26.209999999999994 53.44000000000001 28.089999999999996 53.72000000000001 C 19.639999999999997 52.47000000000001 11.779999999999998 49.37000000000001 3.739999999999995 46.59000000000001 C 2.679999999999995 46.22000000000001 1.5799999999999947 45.83000000000001 0.819999999999995 45.00000000000001 C -0.2600000000000051 43.81000000000001 -0.30000000000000515 41.830000000000005 0.729999999999995 40.60000000000001 C 1.359999999999995 39.84000000000001 2.289999999999995 39.400000000000006 3.189999999999995 38.99000000000001 C 4.819999999999995 38.25000000000001 34.239999999999995 33.52000000000001 34.08 36.59000000000001 C 34.559999999999995 27.510000000000012 33.68 11.690000000000012 38.28 3.680000000000014 C 39.76 1.1000000000000139 43.04 -0.9299999999999864 45.660000000000004 0.48000000000001375 C 47.32 1.3700000000000139 48.1 3.3000000000000136 48.68000000000001 5.090000000000014 C 49.42000000000001 7.380000000000014 57.900000000000006 35.20000000000002 58.06000000000001 35.180000000000014 C 67.86000000000001 34.06000000000002 74.43 32.750000000000014 84.06 34.97000000000001 C 92.2 36.850000000000016 90.15 42.530000000000015 86.3 46.12000000000001 C 83.91 48.35000000000001 65.37 58.01000000000001 64.07 55.65000000000001 C 67.86 62.48000000000001 70.86 70.01000000000002 74.14999999999999 77.09000000000002 C 75.88999999999999 80.82000000000002 76.24 90.44000000000001 69.30999999999999 88.18000000000002 C 67.92999999999999 87.73000000000002 66.86999999999999 86.64000000000001 65.83999999999999 85.61000000000003 C 63.83999999999999 83.59000000000003 43.76999999999999 68.21000000000004 44.459999999999994 66.38000000000002 Z" stroke-linecap="round" /></clipPath><path style="stroke: none; stroke-width: 1; stroke-dasharray: none; stroke-linecap: butt; stroke-dashoffset: 0; stroke-linejoin: miter; stroke-miterlimit: 4; fill: rgb(0,68,178); fill-rule: nonzero; opacity: 1;"  transform=" translate(-25.2, -39.63)" d="M 33.6 2.54 C 30.200000000000003 8.76 28.25 16.18 28.57 23.41 C 28.88 30.83 31.88 38.15 36.53 44.46 C 36.88 44.93 37.13 45.22 37.07 45.18 C 37.07 45.21 37.07 45.23 37.07 45.26 C 37.07 45.32 37.04 45.379999999999995 37 45.43 C 36.93 45.54 36.81 45.63 36.73 45.69 C 36.68 45.72 36.63999999999999 45.75 36.65 45.76 C 36.69 45.79 37.33 45.82 37.5 45.85 C 37.65 45.89 36.96 45.800000000000004 36.77 45.85 C 36.7 45.86 37.28 45.99 37.080000000000005 46.03 C 36.940000000000005 46.050000000000004 37.220000000000006 46.25 37.00000000000001 46.300000000000004 C 36.900000000000006 46.32000000000001 36.67000000000001 46.25000000000001 36.510000000000005 46.150000000000006 C 36.34 46.050000000000004 36.25000000000001 45.940000000000005 36.230000000000004 45.940000000000005 C 36.230000000000004 45.940000000000005 36.230000000000004 45.940000000000005 36.230000000000004 45.940000000000005 L 36.300000000000004 45.900000000000006 L 36.150000000000006 45.970000000000006 L 35.400000000000006 46.330000000000005 C 34.900000000000006 46.56 34.400000000000006 46.800000000000004 33.910000000000004 47.06 C 32.92 47.56 31.930000000000003 48.07 30.950000000000003 48.63 C 28.980000000000004 49.71 27.040000000000003 50.96 25.160000000000004 52.330000000000005 C 21.400000000000006 55.150000000000006 18.360000000000003 59.06 15.270000000000003 63.17 C 12.190000000000003 67.29 9.410000000000004 72.32000000000001 8.180000000000003 77.97 C 7.970000000000003 79.16 8.720000000000002 79.26 8.950000000000003 78.1 C 10.280000000000003 72.52 12.740000000000002 67.36 15.940000000000003 63.31999999999999 C 19.17 59.24999999999999 22.990000000000002 56.209999999999994 26.720000000000002 53.60999999999999 C 28.6 52.28999999999999 30.42 50.94999999999999 32.290000000000006 49.739999999999995 C 33.220000000000006 49.099999999999994 34.17000000000001 48.559999999999995 35.13000000000001 47.99999999999999 C 35.61000000000001 47.72999999999999 36.10000000000001 47.47999999999999 36.59000000000001 47.22999999999999 L 36.77000000000001 47.139999999999986 L 36.860000000000014 47.08999999999999 L 36.84000000000001 47.08999999999999 C 36.78000000000001 47.12999999999999 36.81000000000001 47.10999999999999 36.82000000000001 47.10999999999999 C 36.84000000000001 47.10999999999999 36.86000000000001 47.099999999999994 36.88000000000001 47.08999999999999 C 37.21000000000001 47.00999999999999 37.57000000000001 46.91999999999999 38.01000000000001 46.84999999999999 C 38.42000000000001 46.77999999999999 39.500000000000014 46.859999999999985 40.140000000000015 46.679999999999986 C 40.740000000000016 46.509999999999984 41.430000000000014 46.289999999999985 42.01000000000001 45.999999999999986 L 42.250000000000014 45.889999999999986 C 42.250000000000014 45.889999999999986 42.19000000000001 45.90999999999999 42.170000000000016 45.91999999999999 C 42.110000000000014 45.94999999999999 42.05000000000002 45.94999999999999 41.990000000000016 45.969999999999985 C 41.87000000000002 45.969999999999985 41.710000000000015 45.969999999999985 41.430000000000014 45.91999999999999 C 40.88000000000002 45.829999999999984 40.390000000000015 45.58999999999999 39.860000000000014 45.249999999999986 C 39.750000000000014 45.179999999999986 39.640000000000015 45.109999999999985 39.51000000000001 45.039999999999985 C 39.26000000000001 44.899999999999984 39.000000000000014 44.749999999999986 38.77000000000001 44.59999999999999 C 38.66000000000001 44.51999999999999 38.56000000000001 44.43999999999999 38.46000000000001 44.359999999999985 C 38.42000000000001 44.319999999999986 38.370000000000005 44.26999999999998 38.34000000000001 44.22999999999998 L 38.22000000000001 44.08999999999998 L 38.030000000000015 43.859999999999985 C 37.87000000000002 43.649999999999984 37.70000000000002 43.43999999999998 37.55000000000002 43.219999999999985 C 35.26000000000002 40.009999999999984 33.71000000000002 36.389999999999986 32.780000000000015 32.819999999999986 C 31.850000000000016 29.229999999999986 31.500000000000014 25.619999999999987 31.530000000000015 22.049999999999986 C 31.560000000000016 18.959999999999987 31.750000000000014 15.779999999999987 32.31000000000002 12.579999999999986 C 32.87000000000002 9.389999999999986 33.740000000000016 6.1799999999999855 35.01000000000002 3.119999999999985 C 35.40000000000002 2.219999999999985 35.62000000000002 1.539999999999985 35.71000000000002 1.079999999999985 C 35.82000000000002 0.629999999999985 35.78000000000002 0.379999999999985 35.61000000000002 0.339999999999985 C 35.26000000000002 0.24999999999998498 34.47000000000002 1.0099999999999851 33.60000000000002 2.579999999999985 Z" stroke-linecap="round" /></g><g transform="matrix(1 0 0 1 19.31 4.56)" id="c" clip-path="url(#CLIPPATH_1220)"  ><clipPath id="CLIPPATH_1220" ><path transform="matrix(1 0 0 1 -19.32 -4.55) translate(-44.83, -44.73)" id="d" d="M 44.47 66.37 C 41.12 75.25 32.57 86.62 22.869999999999997 89.24000000000001 C 21.22 89.69000000000001 19.269999999999996 89.44000000000001 18.089999999999996 88.2 C 16.649999999999995 86.67 16.819999999999997 84.27 17.159999999999997 82.2 C 17.959999999999997 77.31 19.119999999999997 72.43 20.789999999999996 67.77000000000001 C 21.379999999999995 66.12 26.209999999999994 53.44000000000001 28.089999999999996 53.72000000000001 C 19.639999999999997 52.47000000000001 11.779999999999998 49.37000000000001 3.739999999999995 46.59000000000001 C 2.679999999999995 46.22000000000001 1.5799999999999947 45.83000000000001 0.819999999999995 45.00000000000001 C -0.2600000000000051 43.81000000000001 -0.30000000000000515 41.830000000000005 0.729999999999995 40.60000000000001 C 1.359999999999995 39.84000000000001 2.289999999999995 39.400000000000006 3.189999999999995 38.99000000000001 C 4.819999999999995 38.25000000000001 34.239999999999995 33.52000000000001 34.08 36.59000000000001 C 34.559999999999995 27.510000000000012 33.68 11.690000000000012 38.28 3.680000000000014 C 39.76 1.1000000000000139 43.04 -0.9299999999999864 45.660000000000004 0.48000000000001375 C 47.32 1.3700000000000139 48.1 3.3000000000000136 48.68000000000001 5.090000000000014 C 49.42000000000001 7.380000000000014 57.900000000000006 35.20000000000002 58.06000000000001 35.180000000000014 C 67.86000000000001 34.06000000000002 74.43 32.750000000000014 84.06 34.97000000000001 C 92.2 36.850000000000016 90.15 42.530000000000015 86.3 46.12000000000001 C 83.91 48.35000000000001 65.37 58.01000000000001 64.07 55.65000000000001 C 67.86 62.48000000000001 70.86 70.01000000000002 74.14999999999999 77.09000000000002 C 75.88999999999999 80.82000000000002 76.24 90.44000000000001 69.30999999999999 88.18000000000002 C 67.92999999999999 87.73000000000002 66.86999999999999 86.64000000000001 65.83999999999999 85.61000000000003 C 63.83999999999999 83.59000000000003 43.76999999999999 68.21000000000004 44.459999999999994 66.38000000000002 Z" stroke-linecap="round" /></clipPath><path style="stroke: none; stroke-width: 1; stroke-dasharray: none; stroke-linecap: butt; stroke-dashoffset: 0; stroke-linejoin: miter; stroke-miterlimit: 4; fill: rgb(0,68,178); fill-rule: nonzero; opacity: 1;"  transform=" translate(-64.15, -49.28)" d="M 50.37 15.28 C 49.949999999999996 17.8 49.47 20.34 49.72 22.91 C 49.8 24.2 50.269999999999996 25.42 50.72 26.58 C 51.25 27.72 51.79 28.81 52.32 29.88 C 52.55 30.439999999999998 52.81 30.98 53.06 31.54 C 53.18 31.84 53.28 32.08 53.47 32.42 L 53.65 32.730000000000004 L 53.89 33.09 C 54.06 33.32 54.22 33.56 54.42 33.78 C 54.86 34.19 55.34 34.57 55.79 34.96 L 56.47 35.54 L 56.64 35.68 C 56.64 35.68 56.67 35.7 56.69 35.72 L 56.809999999999995 35.72 L 57.059999999999995 35.74 L 58.05 35.800000000000004 L 61.949999999999996 36.040000000000006 L 62.919999999999995 36.10000000000001 L 65.64999999999999 35.82000000000001 L 71.13999999999999 35.260000000000005 L 77.24999999999999 34.620000000000005 L 80.32999999999998 34.290000000000006 L 86.21999999999998 33.50000000000001 L 83.27999999999999 36.220000000000006 L 81.83999999999999 37.580000000000005 L 81.17999999999999 38.440000000000005 L 79.86999999999999 40.17 L 79.53999999999999 40.61 L 79.46 40.72 L 79.42999999999999 40.79 L 79.36999999999999 40.93 L 79.13999999999999 41.51 C 78.97999999999999 41.9 78.80999999999999 42.29 78.61999999999999 42.69 L 78.55 42.839999999999996 L 78.55 42.94 L 78.53 43.14 L 78.48 43.55 C 78.45 43.82 78.35000000000001 44.12 78.32000000000001 44.37 C 78.35000000000001 44.559999999999995 78.37 44.76 78.36000000000001 44.949999999999996 C 78.30000000000001 46.72 79.53000000000002 46.9 81.89000000000001 46.519999999999996 C 82.18000000000002 46.489999999999995 82.50000000000001 46.41 82.84000000000002 46.31999999999999 L 83.86000000000001 46.059999999999995 L 83.89000000000001 46.059999999999995 L 83.85000000000001 46.08 L 83.77000000000001 46.129999999999995 L 83.60000000000001 46.239999999999995 L 83.27000000000001 46.449999999999996 L 82.60000000000001 46.879999999999995 C 82.16000000000001 47.16 81.71000000000001 47.459999999999994 81.28000000000002 47.72 C 79.53000000000002 48.8 77.78000000000002 49.83 75.91000000000001 50.76 C 72.33000000000001 52.55 69.05000000000001 54.21 65.37 55.8 C 61.650000000000006 57.39 57.190000000000005 58.559999999999995 53.300000000000004 59.949999999999996 C 51.330000000000005 60.66 49.300000000000004 61.29 47.370000000000005 61.949999999999996 C 46.400000000000006 62.309999999999995 45.46000000000001 62.599999999999994 44.510000000000005 63.01 C 43.78000000000001 63.3 43.080000000000005 63.589999999999996 42.400000000000006 63.96 C 39.660000000000004 65.38 37.32000000000001 67.4 35.06 69.31 C 32.81 71.23 30.750000000000004 73.34 29.32 75.75 C 28.59 76.94 28.12 78.22 27.73 79.48 C 27.6 80.13000000000001 27.42 80.75 27.34 81.39 C 27.29 82.03 27.14 82.64 27.15 83.27 C 27.11 84.17 28.18 84.24 28.24 83.41 C 28.43 80.97999999999999 29.61 78.6 31.099999999999998 76.36 C 32.61 74.08 35.08 72.45 37.39 70.72 C 39.71 68.99 42.01 66.89 44.84 65.65 L 46.11000000000001 65.11 C 46.650000000000006 64.88 47.220000000000006 64.69 47.78000000000001 64.48 C 48.900000000000006 64.06 50.06000000000001 63.68000000000001 51.23000000000001 63.31 C 53.58000000000001 62.550000000000004 56.03000000000001 61.82 58.38000000000001 60.980000000000004 C 63.110000000000014 59.300000000000004 67.14000000000001 57.32000000000001 71.00000000000001 55.43000000000001 C 74.92000000000002 53.56000000000001 79.48000000000002 51.760000000000005 83.42000000000002 49.49000000000001 C 84.36000000000001 48.96000000000001 85.29000000000002 48.35000000000001 86.16000000000001 47.790000000000006 L 87.48 46.88000000000001 L 88.13000000000001 46.42000000000001 L 88.45 46.19000000000001 L 88.61 46.08000000000001 C 88.61 46.08000000000001 88.53 46.100000000000016 88.49 46.110000000000014 L 87.44 46.390000000000015 L 86.92 46.530000000000015 L 86.46000000000001 46.610000000000014 L 85.57000000000001 46.76000000000001 C 85.30000000000001 46.79000000000001 85.09 46.780000000000015 84.87 46.79000000000001 C 84.4 46.84000000000001 84.18 46.72000000000001 83.96000000000001 46.640000000000015 C 83.82000000000001 46.62000000000001 83.84 46.490000000000016 83.80000000000001 46.40000000000001 C 83.79 46.30000000000001 83.74000000000001 46.22000000000001 83.78000000000002 46.09000000000001 L 84.02000000000001 45.60000000000001 L 84.14000000000001 45.35000000000001 L 84.43000000000002 44.98000000000001 C 84.63000000000002 44.72000000000001 84.82000000000002 44.47000000000001 85.00000000000001 44.21000000000001 C 85.05000000000001 44.11000000000001 85.29000000000002 43.870000000000005 85.44000000000001 43.690000000000005 L 85.93 43.120000000000005 L 86.54 42.370000000000005 C 86.59 42.27 86.86 42.03 87.03 41.86000000000001 L 87.58 41.300000000000004 L 88.64999999999999 40.190000000000005 L 89.16999999999999 39.64000000000001 L 89.23999999999998 39.57000000000001 L 89.35999999999999 39.46000000000001 L 89.60999999999999 39.24000000000001 L 90.09999999999998 38.81000000000001 L 93.98999999999998 35.36000000000001 C 96.37999999999998 33.510000000000005 98.75999999999998 31.660000000000007 101.14999999999998 29.810000000000006 L 95.92999999999998 30.580000000000005 L 93.31999999999998 30.960000000000004 L 91.75999999999998 31.170000000000005 L 86.45999999999998 31.870000000000005 C 82.94999999999997 32.330000000000005 79.43999999999998 32.790000000000006 75.93999999999998 33.260000000000005 L 70.69999999999999 33.95 L 68.08999999999999 34.290000000000006 L 67.75999999999999 34.330000000000005 C 67.66999999999999 34.34 67.66999999999999 34.330000000000005 67.61999999999999 34.330000000000005 L 66.93999999999998 34.330000000000005 L 63.329999999999984 34.410000000000004 L 60.789999999999985 34.46 C 60.009999999999984 34.46 58.83999999999998 34.58 58.819999999999986 34.31 L 57.18999999999998 33.190000000000005 L 56.36999999999998 32.620000000000005 C 56.12999999999998 32.42 55.93999999999998 32.18000000000001 55.749999999999986 31.950000000000003 C 55.359999999999985 31.490000000000002 55.04999999999998 30.950000000000003 54.98999999999999 30.810000000000002 C 54.76999999999999 30.340000000000003 54.59999999999999 29.85 54.389999999999986 29.400000000000002 C 54.249999999999986 28.900000000000002 54.02999999999999 28.470000000000002 53.87999999999999 27.990000000000002 C 53.19999999999999 26.14 52.20999999999999 24.230000000000004 51.999999999999986 22.060000000000002 C 51.829999999999984 19.87 52.579999999999984 17.770000000000003 52.719999999999985 15.660000000000002 C 52.72999999999998 15.120000000000001 52.23999999999999 14.740000000000002 51.649999999999984 14.610000000000001 C 51.069999999999986 14.47 50.429999999999986 14.65 50.34999999999999 15.250000000000002 Z" stroke-linecap="round" /></g></g></g></svg>