<svg viewBox = "0 0 130.95 103.62" width="130.95" height="103.62" xmlns="http://www.w3.org/2000/svg"><g transform="matrix(1 0 0 1 65.47 51.81)"  ><g style=""   ><g transform="matrix(1 0 0 1 28.81 5.64)" id="c"  ><path style="stroke: none; stroke-width: 1; stroke-dasharray: none; stroke-linecap: butt; stroke-dashoffset: 0; stroke-linejoin: miter; stroke-miterlimit: 4; fill: rgb(255,255,255); fill-rule: nonzero; opacity: 1;"  transform=" translate(-94.28, -57.45)" d="M 130.95 11.28 L 57.62 11.28 L 57.62 103.62 L 130.95 103.62 L 130.95 11.28 Z" stroke-linecap="round" /></g><g transform="matrix(1 0 0 1 18.14 -9)" id="c"  ><path style="stroke: none; stroke-width: 1; stroke-dasharray: none; stroke-linecap: butt; stroke-dashoffset: 0; stroke-linejoin: miter; stroke-miterlimit: 4; fill: rgb(0,30,79); fill-rule: nonzero; opacity: 1;"  transform=" translate(-83.62, -42.81)" d="M 90.83 60.46 C 113.87 50.58 99.75999999999999 16.07 76.4 25.160000000000004 C 53.36000000000001 35.040000000000006 67.47 69.55000000000001 90.83000000000001 60.46 Z" stroke-linecap="round" /></g><g transform="matrix(1 0 0 1 16.07 -18.55)" id="c"  ><path style="stroke: none; stroke-width: 1; stroke-dasharray: none; stroke-linecap: butt; stroke-dashoffset: 0; stroke-linejoin: miter; stroke-miterlimit: 4; fill: rgb(255,230,204); fill-rule: nonzero; opacity: 1;"  transform=" translate(-81.54, -33.26)" d="M 83.69 42.77 L 72.6 27.270000000000003 C 72.6 27.270000000000003 80.02 21.210000000000004 90.49 24.960000000000004 L 83.69999999999999 42.78 Z" stroke-linecap="round" /></g><g transform="matrix(1 0 0 1 -40.44 16.66)" id="c"  ><path style="stroke: none; stroke-width: 1; stroke-dasharray: none; stroke-linecap: butt; stroke-dashoffset: 0; stroke-linejoin: miter; stroke-miterlimit: 4; fill: rgb(240,245,255); fill-rule: nonzero; opacity: 1;"  transform=" translate(-25.03, -68.47)" d="M 15.94 40.78 C 18.63 40.78 25.689999999999998 40.78 28.29 40.83 C 28.58 42.46 37.879999999999995 92.50999999999999 37.78 92.35 C 37.78 92.35 21.450000000000003 100.91999999999999 12.280000000000001 92.35 L 15.940000000000001 40.779999999999994 Z" stroke-linecap="round" /></g><g transform="matrix(1 0 0 1 -43.91 9.8)" id="c"  ><path style="stroke: none; stroke-width: 1; stroke-dasharray: none; stroke-linecap: butt; stroke-dashoffset: 0; stroke-linejoin: miter; stroke-miterlimit: 4; fill: rgb(132,217,186); fill-rule: nonzero; opacity: 1;"  transform=" translate(-21.56, -61.61)" d="M 17.11 40.78 C 17.11 40.78 9.19 41.81 7.279999999999999 45.620000000000005 C 5.379999999999999 49.42 2.579999999999999 79.94 5.299999999999999 82.12 C 8.02 84.29 28.369999999999997 75.21000000000001 38.959999999999994 65.78 L 35.85999999999999 61.61 C 34.529999999999994 63.1 13.719999999999992 71.19 11.999999999999993 70.78 C 11.999999999999993 70.78 12.519999999999992 58.35 13.609999999999992 55.09 C 14.699999999999992 51.830000000000005 18.18999999999999 47.36 17.099999999999994 40.78 Z" stroke-linecap="round" /></g><g transform="matrix(1 0 0 1 -39.13 -23.37)" id="c"  ><path style="stroke: none; stroke-width: 1; stroke-dasharray: none; stroke-linecap: butt; stroke-dashoffset: 0; stroke-linejoin: miter; stroke-miterlimit: 4; fill: rgb(255,230,204); fill-rule: nonzero; opacity: 1;"  transform=" translate(-26.34, -28.44)" d="M 28.62 8.45 C 39.19 9.209999999999999 41.63 35.519999999999996 24.29 34.620000000000005 L 24.29 40.790000000000006 L 26.29 40.790000000000006 C 27.61 46.790000000000006 24.66 49.010000000000005 17.96 48.290000000000006 C 17.96 48.290000000000006 19.630000000000003 43.290000000000006 18.79 39.46000000000001 C 16.84 32.82000000000001 12.66 25.84000000000001 19.619999999999997 20.790000000000006 C 23.619999999999997 18.460000000000008 27.79 15.790000000000006 28.619999999999997 8.460000000000006 Z" stroke-linecap="round" /></g><g transform="matrix(1 0 0 1 -49.36 14.16)" id="c"  ><path style="stroke: none; stroke-width: 1; stroke-dasharray: none; stroke-linecap: butt; stroke-dashoffset: 0; stroke-linejoin: miter; stroke-miterlimit: 4; fill: rgb(132,217,186); fill-rule: nonzero; opacity: 1;"  transform=" translate(-16.11, -65.97)" d="M 18.48 40.99 C 18.080000000000002 42.85 29.67 94.27000000000001 10.620000000000001 90.77000000000001 L 12.290000000000001 42.28000000000001 L 18.48 40.99000000000001 Z" stroke-linecap="round" /></g><g transform="matrix(1 0 0 1 -45.04 -17.07)" id="c"  ><path style="stroke: none; stroke-width: 1; stroke-dasharray: none; stroke-linecap: butt; stroke-dashoffset: 0; stroke-linejoin: miter; stroke-miterlimit: 4; fill: rgb(0,30,79); fill-rule: nonzero; opacity: 1;"  transform=" translate(-20.43, -34.74)" d="M 28.95 2.12 C 12.19 -7.65 -6.86 18.58 2.45 35.78 C 6.78 44.45 3.45 50.28 2.45 51.95 C -1.7699999999999996 57.160000000000004 14.32 64.5 12.280000000000001 68.62 C 11.610000000000001 70.95 16.61 68.62 17.61 60.120000000000005 C 18.61 51.620000000000005 17.939999999999998 48.290000000000006 17.939999999999998 48.290000000000006 C 17.939999999999998 48.290000000000006 19.61 43.290000000000006 18.769999999999996 39.46000000000001 C 16.819999999999997 32.82000000000001 12.629999999999995 25.85000000000001 19.599999999999994 20.790000000000006 C 23.599999999999994 18.460000000000008 27.769999999999996 15.790000000000006 28.599999999999994 8.460000000000006 C 36.519999999999996 8.480000000000006 40.849999999999994 26.400000000000006 32.169999999999995 32.39000000000001 C 44.60999999999999 31.78000000000001 43.849999999999994 1.5500000000000078 28.929999999999993 2.130000000000006 Z" stroke-linecap="round" /></g><g transform="matrix(1 0 0 1 -19.5 13.44)" id="c"  ><path style="stroke: none; stroke-width: 1; stroke-dasharray: none; stroke-linecap: butt; stroke-dashoffset: 0; stroke-linejoin: miter; stroke-miterlimit: 4; fill: rgb(132,217,186); fill-rule: nonzero; opacity: 1;"  transform=" translate(-45.97, -65.25)" d="M 26.28 40.78 C 26.28 40.78 33.28 40.61 35.45 42.95 C 37.620000000000005 45.28 45.28 60.95 47.28 62.620000000000005 C 47.28 62.620000000000005 51.45 58.120000000000005 56.95 53.95 C 62.45 49.78 63.28 48.28 63.28 48.28 L 66.78 51.7 C 65.57000000000001 52.67 50.620000000000005 72.9 45.28 71.62 C 43.11 71.29 35.28 58.95 35.28 58.95 C 35.28 58.95 36.09 76.49000000000001 38.36 87.66 C 38.36 87.66 30.939999999999998 92.11999999999999 27.439999999999998 87.95 C 23.939999999999998 83.78 25.269999999999996 48.620000000000005 26.269999999999996 40.78 Z" stroke-linecap="round" /></g><g transform="matrix(1 0 0 1 3.92 -5.48)" id="c"  ><path style="stroke: none; stroke-width: 1; stroke-dasharray: none; stroke-linecap: butt; stroke-dashoffset: 0; stroke-linejoin: miter; stroke-miterlimit: 4; fill: rgb(255,230,204); fill-rule: nonzero; opacity: 1;"  transform=" translate(-69.4, -46.34)" d="M 63.28 48.28 C 64.46000000000001 46.07 71.99000000000001 41.46 74.86 41.28 C 77.24 41.43 72.42999999999999 44.24 72.11 44.22 C 73.54 50.32 71.29 50.33 66.47 51.39 L 63.28 48.28 Z" stroke-linecap="round" /></g><g transform="matrix(1 0 0 1 -21.24 10.07)" id="c"  ><path style="stroke: none; stroke-width: 1; stroke-dasharray: none; stroke-linecap: butt; stroke-dashoffset: 0; stroke-linejoin: miter; stroke-miterlimit: 4; fill: rgb(255,230,204); fill-rule: nonzero; opacity: 1;"  transform=" translate(-44.23, -61.88)" d="M 36.32 62.22 C 36.32 62.22 37.43 60.97 38.68 59.78 C 39.33 58.88 45.79 58.26 45.71 59.44 C 45.71 59.44 49.120000000000005 58.94 50.8 58.769999999999996 C 52.489999999999995 58.599999999999994 53.19 59.42999999999999 49.239999999999995 60.41 C 46.309999999999995 61.13999999999999 44.12 62.029999999999994 42.989999999999995 62.529999999999994 C 41.85999999999999 63.029999999999994 38.38999999999999 65.00999999999999 38.38999999999999 65.00999999999999 L 36.31999999999999 62.21999999999999 Z" stroke-linecap="round" /></g><g transform="matrix(1 0 0 1 -41.8 14.52)" id="c"  ><path style="stroke: rgb(101,208,168); stroke-width: 0.75; stroke-dasharray: none; stroke-linecap: round; stroke-dashoffset: 0; stroke-linejoin: miter; stroke-miterlimit: 10; fill: none; fill-rule: nonzero; opacity: 1;"  transform=" translate(-23.68, -66.33)" d="M 35.34 61.88 C 24.340000000000003 68.08 12.010000000000005 70.78 12.010000000000005 70.78" stroke-linecap="round" /></g><g transform="matrix(1 0 0 1 -42.05 23.22)" id="c"  ><path style="stroke: rgb(101,208,168); stroke-width: 0.75; stroke-dasharray: none; stroke-linecap: round; stroke-dashoffset: 0; stroke-linejoin: miter; stroke-miterlimit: 10; fill: none; fill-rule: nonzero; opacity: 1;"  transform=" translate(-23.43, -75.03)" d="M 10.93 81.59 C 10.93 81.59 23.72 77.04 35.92 68.47" stroke-linecap="round" /></g><g transform="matrix(1 0 0 1 -30.31 2.24)" id="c"  ><path style="stroke: rgb(101,208,168); stroke-width: 0.75; stroke-dasharray: none; stroke-linecap: round; stroke-dashoffset: 0; stroke-linejoin: miter; stroke-miterlimit: 10; fill: none; fill-rule: nonzero; opacity: 1;"  transform=" translate(-35.17, -54.05)" d="M 35.28 58.95 C 35.28 58.95 34.78 51.440000000000005 35.28 49.150000000000006" stroke-linecap="round" /></g></g></g></svg>