<svg viewBox = "0 0 95.22 122.3" width="95.22" height="122.3" xmlns="http://www.w3.org/2000/svg"><g transform="matrix(1 0 0 1 47.61 61.15)"  ><g style=""   ><g transform="matrix(1 0 0 1 -6.9 -36.34)" id="c"  ><path style="stroke: none; stroke-width: 1; stroke-dasharray: none; stroke-linecap: butt; stroke-dashoffset: 0; stroke-linejoin: miter; stroke-miterlimit: 4; fill: rgb(255,230,204); fill-rule: nonzero; opacity: 1;"  transform=" translate(-40.71, -24.81)" d="M 24.72 15.92 C 22.27 42.89 46.08 26.439999999999998 52.05 36.75 C 52.05 36.75 54.879999999999995 29.92 56.879999999999995 28.09 C 52.24999999999999 27.16 53.199999999999996 7.27 46.05 14.42 C 45.11 16.3 46.779999999999994 20.57 47.879999999999995 21.59 C 46.72 25.49 43.919999999999995 18.95 42.709999999999994 18.42 C 38.98 18.26 29.739999999999995 10.060000000000002 24.709999999999994 15.920000000000002 Z" stroke-linecap="round" /></g><g transform="matrix(1 0 0 1 -11.71 -49.52)" id="c"  ><path style="stroke: none; stroke-width: 1; stroke-dasharray: none; stroke-linecap: butt; stroke-dashoffset: 0; stroke-linejoin: miter; stroke-miterlimit: 4; fill: rgb(0,30,79); fill-rule: nonzero; opacity: 1;"  transform=" translate(-35.9, -11.63)" d="M 24.72 15.92 C 31.91 10.27 42.879999999999995 18.44 46.72 23.09 L 47.89 21.59 C 40.66 6.27 55.870000000000005 14.29 52.89 23.259999999999998 C 64.66 -10.61 21.64 -2.6 16.88 16.42 C 18.919999999999998 25.25 26.83 20.270000000000003 24.71 15.920000000000002 Z" stroke-linecap="round" /></g><g transform="matrix(1 0 0 1 -6.9 -8.97)" id="c"  ><path style="stroke: none; stroke-width: 1; stroke-dasharray: none; stroke-linecap: butt; stroke-dashoffset: 0; stroke-linejoin: miter; stroke-miterlimit: 4; fill: rgb(132,217,186); fill-rule: nonzero; opacity: 1;"  transform=" translate(-40.71, -52.18)" d="M 56.88 28.08 C 45.24 46.769999999999996 49.290000000000006 72.6 17.880000000000003 69.57 C 14.880000000000003 80.41 27.130000000000003 74.46 38.88 75.91 C 54.150000000000006 81.11 75.19 30.879999999999995 56.88 28.069999999999993 Z" stroke-linecap="round" /></g><g transform="matrix(1 0 0 1 20.79 6.98)" id="c"  ><path style="stroke: none; stroke-width: 1; stroke-dasharray: none; stroke-linecap: butt; stroke-dashoffset: 0; stroke-linejoin: miter; stroke-miterlimit: 4; fill: rgb(132,217,186); fill-rule: nonzero; opacity: 1;"  transform=" translate(-68.4, -68.13)" d="M 54.22 93.25 C 55.879999999999995 91.61 52.949999999999996 29.759999999999998 61.239999999999995 31.229999999999997 C 79.32 38.43 101.57 138.76 54.22 93.25 Z" stroke-linecap="round" /></g><g transform="matrix(1 0 0 1 20.12 28.47)" id="c"  ><path style="stroke: none; stroke-width: 1; stroke-dasharray: none; stroke-linecap: butt; stroke-dashoffset: 0; stroke-linejoin: miter; stroke-miterlimit: 4; fill: rgb(0,50,133); fill-rule: nonzero; opacity: 1;"  transform=" translate(-67.73, -89.62)" d="M 84.22 59.17 C 60.599999999999994 44.61 89.07 106.02000000000001 50.22 106.91 C 4.719999999999999 123.36 132.25 145.76 84.22 59.169999999999995 Z" stroke-linecap="round" /></g><g transform="matrix(1 0 0 1 -38.61 11.12)" id="c"  ><path style="stroke: none; stroke-width: 1; stroke-dasharray: none; stroke-linecap: butt; stroke-dashoffset: 0; stroke-linejoin: miter; stroke-miterlimit: 4; fill: rgb(255,230,204); fill-rule: nonzero; opacity: 1;"  transform=" translate(-9, -72.27)" d="M 17.88 70.63 C 13.43 66.08999999999999 -2.66 69.67 0.379999999999999 75.96 C 4.899999999999999 72.92999999999999 19.4 80.49 17.88 70.63 Z" stroke-linecap="round" /></g><g transform="matrix(1 0 0 1 11.27 -6.32)" id="c"  ><path style="stroke: rgb(45,147,110); stroke-width: 0.75; stroke-dasharray: none; stroke-linecap: round; stroke-dashoffset: 0; stroke-linejoin: miter; stroke-miterlimit: 10; fill: none; fill-rule: nonzero; opacity: 1;"  transform=" translate(-58.88, -54.83)" d="M 54.22 66.58 C 54.22 66.58 60.55 53.91 63.55 43.08" stroke-linecap="round" /></g></g></g></svg>