<svg viewBox = "0 0 108.05 130.57" width="108.05" height="130.57" xmlns="http://www.w3.org/2000/svg"><g transform="matrix(1 0 0 1 54.02 65.28)"  ><g style=""   ><g transform="matrix(1 0 0 1 2.91 -23.2)" id="c"  ><path style="stroke: none; stroke-width: 1; stroke-dasharray: none; stroke-linecap: butt; stroke-dashoffset: 0; stroke-linejoin: miter; stroke-miterlimit: 4; fill: rgb(255,255,255); fill-rule: nonzero; opacity: 1;"  transform=" translate(-56.93, -42.09)" d="M 108.05 0 L 5.81 0 L 5.81 84.17 L 108.05 84.17 L 108.05 0 Z" stroke-linecap="round" /></g><g transform="matrix(1 0 0 1 36.09 -51.81)" id="c"  ><path style="stroke: none; stroke-width: 1; stroke-dasharray: none; stroke-linecap: butt; stroke-dashoffset: 0; stroke-linejoin: miter; stroke-miterlimit: 4; fill: rgb(0,30,79); fill-rule: nonzero; opacity: 1;"  transform=" translate(-90.11, -13.47)" d="M 84.49 10 L 95.24 10 C 95.24 10 94.36 14.280000000000001 95.74 16.95 L 85.61999999999999 16.95 C 85.61999999999999 16.95 84.36999999999999 15 84.49 10 Z" stroke-linecap="round" /></g><g transform="matrix(1 0 0 1 36.09 -42.39)" id="c"  ><path style="stroke: none; stroke-width: 1; stroke-dasharray: none; stroke-linecap: butt; stroke-dashoffset: 0; stroke-linejoin: miter; stroke-miterlimit: 4; fill: rgb(0,50,133); fill-rule: nonzero; opacity: 1;"  transform=" translate(-90.11, -22.9)" d="M 84.49 19.42 L 95.24 19.42 C 95.24 19.42 94.36 23.700000000000003 95.74 26.37 L 85.61999999999999 26.37 C 85.61999999999999 26.37 84.36999999999999 24.42 84.49 19.42 Z" stroke-linecap="round" /></g><g transform="matrix(1 0 0 1 23.22 -51.81)" id="c"  ><path style="stroke: none; stroke-width: 1; stroke-dasharray: none; stroke-linecap: butt; stroke-dashoffset: 0; stroke-linejoin: miter; stroke-miterlimit: 4; fill: rgb(0,50,133); fill-rule: nonzero; opacity: 1;"  transform=" translate(-77.24, -13.47)" d="M 71.62 10 L 82.37 10 C 82.37 10 81.49000000000001 14.280000000000001 82.87 16.95 L 72.75 16.95 C 72.75 16.95 71.5 15 71.62 10 Z" stroke-linecap="round" /></g><g transform="matrix(1 0 0 1 -5.68 -43.66)" id="c"  ><path style="stroke: none; stroke-width: 1; stroke-dasharray: none; stroke-linecap: butt; stroke-dashoffset: 0; stroke-linejoin: miter; stroke-miterlimit: 4; fill: rgb(185,229,255); fill-rule: nonzero; opacity: 1;"  transform=" translate(-48.34, -21.63)" d="M 58.72 6.75 L 37.97 6.75 L 37.97 36.5 L 58.72 36.5 L 58.72 6.75 Z" stroke-linecap="round" /></g><g transform="matrix(1 0 0 1 -16.06 24.57)" id="c"  ><path style="stroke: none; stroke-width: 1; stroke-dasharray: none; stroke-linecap: butt; stroke-dashoffset: 0; stroke-linejoin: miter; stroke-miterlimit: 4; fill: rgb(132,217,186); fill-rule: nonzero; opacity: 1;"  transform=" translate(-37.97, -89.85)" d="M 29.39 81.81 C 29.39 81.81 19.64 99.9 18.97 128.45 C 18.97 128.45 27.939999999999998 133.23 58.29 128.45 C 58.29 128.45 55.31 102.28999999999999 47.97 81.80999999999999 C 47.97 81.80999999999999 49.97 68.63999999999999 51.3 61.47999999999999 L 57.16 59.32999999999999 C 57.16 59.32999999999999 56.97 53.92999999999999 54.97 49.129999999999995 L 41.43 51.489999999999995 C 40.96 52.69 35.22 52.91 31.64 51.989999999999995 C 20.55 52.91 21.5 56.99999999999999 17.64 64.99 C 17.64 64.99 20.310000000000002 68.99 26.310000000000002 68.99 C 26.310000000000002 68.99 31.14 78.02 29.39 81.8 Z" stroke-linecap="round" /></g><g transform="matrix(1 0 0 1 -39.13 22.9)" id="c"  ><path style="stroke: none; stroke-width: 1; stroke-dasharray: none; stroke-linecap: butt; stroke-dashoffset: 0; stroke-linejoin: miter; stroke-miterlimit: 4; fill: rgb(255,211,165); fill-rule: nonzero; opacity: 1;"  transform=" translate(-14.89, -88.18)" d="M 19.1 66.52 C 19.1 66.52 15.98 81.34 15.310000000000002 85.34 C 14.640000000000002 89.34 3.480000000000002 107.67 3.480000000000002 107.67 C 3.480000000000002 107.67 3.3100000000000023 109.17 5.810000000000002 109.84 C 15.330000000000002 100.54 24.360000000000003 82.35000000000001 26.310000000000002 69.01 C 26.310000000000002 69.01 22.230000000000004 69.55000000000001 19.1 66.53 Z" stroke-linecap="round" /></g><g transform="matrix(1 0 0 1 17.4 -23.78)" id="c"  ><path style="stroke: none; stroke-width: 1; stroke-dasharray: none; stroke-linecap: butt; stroke-dashoffset: 0; stroke-linejoin: miter; stroke-miterlimit: 4; fill: rgb(255,211,165); fill-rule: nonzero; opacity: 1;"  transform=" translate(-71.42, -41.5)" d="M 55.44 50.37 C 55.44 50.37 66.3 48.25 68.3 47 C 70.3 45.75 84.42 24.75 84.42 24.75 L 87.42 26 C 87.42 26 76.17 48.379999999999995 74.3 51.879999999999995 C 72.42999999999999 55.379999999999995 57.08 58.26 57.08 58.26 C 57.08 58.26 56.32 52.739999999999995 55.43 50.37 Z" stroke-linecap="round" /></g><g transform="matrix(1 0 0 1 -51.12 48.56)" id="c"  ><path style="stroke: none; stroke-width: 1; stroke-dasharray: none; stroke-linecap: butt; stroke-dashoffset: 0; stroke-linejoin: miter; stroke-miterlimit: 4; fill: rgb(255,211,165); fill-rule: nonzero; opacity: 1;"  transform=" translate(-2.91, -113.84)" d="M 3.47 107.67 C 3.47 107.67 1.0500000000000003 111.59 0.3900000000000001 112.67 C -0.5899999999999999 115.06 0.2200000000000001 121.13 3.47 119.84 C 2.9800000000000004 116.9 5.630000000000001 113.29 5.8100000000000005 109.84 C 5.8100000000000005 109.84 3.6400000000000006 109.51 3.4800000000000004 107.67 Z" stroke-linecap="round" /></g><g transform="matrix(1 0 0 1 34.32 -45.9)" id="c"  ><path style="stroke: none; stroke-width: 1; stroke-dasharray: none; stroke-linecap: butt; stroke-dashoffset: 0; stroke-linejoin: miter; stroke-miterlimit: 4; fill: rgb(255,211,165); fill-rule: nonzero; opacity: 1;"  transform=" translate(-88.35, -19.39)" d="M 84.43 24.92 C 84.43 24.92 85.61000000000001 21.05 86.47000000000001 19.110000000000003 C 87.86000000000001 15.740000000000002 94.43 8.190000000000003 89.91000000000001 16.640000000000004 C 90.39000000000001 16.590000000000003 90.81000000000002 17.670000000000005 91.4 17.610000000000003 C 91.84 17.570000000000004 92.38000000000001 18.290000000000003 92.24000000000001 19.040000000000003 C 92.30000000000001 23.440000000000005 89.83000000000001 24.330000000000002 87.01 26.000000000000004 L 84.43 24.92 Z" stroke-linecap="round" /></g><g transform="matrix(1 0 0 1 -17.49 -14.81)" id="c"  ><path style="stroke: none; stroke-width: 1; stroke-dasharray: none; stroke-linecap: butt; stroke-dashoffset: 0; stroke-linejoin: miter; stroke-miterlimit: 4; fill: rgb(255,211,165); fill-rule: nonzero; opacity: 1;"  transform=" translate(-36.53, -50.48)" d="M 31.64 52 L 31.64 48.25 C 31.64 48.25 37.06 49.75 41.43 48.25 L 41.43 51.91 C 41.43 51.91 36.85 53.629999999999995 31.64 52 Z" stroke-linecap="round" /></g><g transform="matrix(1 0 0 1 -16.91 -43.78)" id="c"  ><path style="stroke: none; stroke-width: 1; stroke-dasharray: none; stroke-linecap: butt; stroke-dashoffset: 0; stroke-linejoin: miter; stroke-miterlimit: 4; fill: rgb(0,30,79); fill-rule: nonzero; opacity: 1;"  transform=" translate(-37.12, -21.5)" d="M 37.12 29.5 C 47.5 29.65 47.5 13.350000000000001 37.12 13.5 C 26.739999999999995 13.35 26.739999999999995 29.65 37.12 29.5 Z" stroke-linecap="round" /></g><g transform="matrix(1 0 0 1 -17.23 -32.35)" id="c"  ><path style="stroke: none; stroke-width: 1; stroke-dasharray: none; stroke-linecap: butt; stroke-dashoffset: 0; stroke-linejoin: miter; stroke-miterlimit: 4; fill: rgb(0,30,79); fill-rule: nonzero; opacity: 1;"  transform=" translate(-36.79, -32.94)" d="M 29.4 19.42 C 18.29 24.990000000000002 20.82 53.63 41.43 48.25 C 53.67 42.29 53.29 23.59 43.18 17.75 C 40.31 15.25 29.4 19.42 29.4 19.42 Z" stroke-linecap="round" /></g></g></g></svg>